<svg xmlns="http://www.w3.org/2000/svg" viewBox="0 0 235.42 227.91"><defs><style>.cls-1{fill:none;stroke:#ffae00;stroke-miterlimit:10;stroke-width:3px;}</style></defs><title>gerenciar-ideias</title><g id="Camada_2" data-name="Camada 2"><g id="ícones"><path class="cls-1" d="M196.6,183.08a30.76,30.76,0,0,1-1.73,4.09,30,30,0,0,1-26.7,16.33h-8a29.87,29.87,0,0,1-14.77-3.88l3.06-3.06a8.5,8.5,0,0,0,0-12l-5.85-5.85a8.28,8.28,0,0,1-1.55-2.15h50.78A5,5,0,0,1,196.6,183.08Z"/><path class="cls-1" d="M233.92,71.25a69.44,69.44,0,0,1-17,45.62A77.28,77.28,0,0,0,202.28,142a71.82,71.82,0,0,0-2.85,10.63H167a8.5,8.5,0,0,0,.08-1.14V135.68a8.5,8.5,0,0,0-8.5-8.5h-8.27a8.52,8.52,0,0,1-8-5.53q-.69-1.81-1.47-3.57a8.51,8.51,0,0,1,1.7-9.55l5.85-5.86a8.49,8.49,0,0,0,0-12L137.25,79.45a8.49,8.49,0,0,0-12,0l-5.85,5.85a8.53,8.53,0,0,1-9.56,1.7c-1.17-.52-2.36-1-3.56-1.47a8.52,8.52,0,0,1-5.54-8V69.3a8.47,8.47,0,0,0-5.62-8,69.76,69.76,0,0,1,138.81,9.94Z"/><path class="cls-1" d="M207.59,147.35a5.33,5.33,0,0,1-5.32,5.32H167a8.5,8.5,0,0,0,.08-1.14V142h35.17A5.31,5.31,0,0,1,207.59,147.35Z"/><path class="cls-1" d="M207.59,164.51a5.33,5.33,0,0,1-5.32,5.32H140.63c.08-.24.18-.47.28-.7.52-1.17,1-2.36,1.47-3.56a8.53,8.53,0,0,1,8-5.54h8.27a8.51,8.51,0,0,0,3.67-.83h40A5.32,5.32,0,0,1,207.59,164.51Z"/><path class="cls-1" d="M158.61,127.19h-8.27a8.53,8.53,0,0,1-8-5.54c-.45-1.21-.95-2.39-1.47-3.56a8.53,8.53,0,0,1,1.71-9.56l5.85-5.85a8.49,8.49,0,0,0,0-12L137.26,79.45a8.49,8.49,0,0,0-12,0l-5.85,5.85A8.53,8.53,0,0,1,109.83,87c-1.17-.52-2.36-1-3.56-1.47a8.53,8.53,0,0,1-5.54-8V69.3a8.5,8.5,0,0,0-8.5-8.5H76.38a8.5,8.5,0,0,0-8.5,8.5v8.27a8.53,8.53,0,0,1-5.54,8C61.14,86,60,86.48,58.78,87a8.53,8.53,0,0,1-9.56-1.71l-5.85-5.85a8.49,8.49,0,0,0-12,0L20.15,90.66a8.49,8.49,0,0,0,0,12L26,108.53a8.53,8.53,0,0,1,1.71,9.56c-.52,1.17-1,2.36-1.47,3.56a8.53,8.53,0,0,1-8,5.54H10a8.5,8.5,0,0,0-8.5,8.5v15.85A8.5,8.5,0,0,0,10,160h8.27a8.53,8.53,0,0,1,8,5.54c.45,1.21.95,2.39,1.47,3.56A8.53,8.53,0,0,1,26,178.69l-5.85,5.85a8.49,8.49,0,0,0,0,12l11.21,11.21a8.49,8.49,0,0,0,12,0l5.85-5.85a8.53,8.53,0,0,1,9.56-1.71c1.17.52,2.36,1,3.56,1.47a8.53,8.53,0,0,1,5.54,8v8.27a8.5,8.5,0,0,0,8.5,8.5H92.23a8.5,8.5,0,0,0,8.5-8.5v-8.27a8.53,8.53,0,0,1,5.54-8c1.21-.45,2.39-.95,3.56-1.47a8.53,8.53,0,0,1,9.56,1.71l5.85,5.85a8.49,8.49,0,0,0,12,0l11.21-11.21a8.49,8.49,0,0,0,0-12l-5.85-5.85a8.53,8.53,0,0,1-1.71-9.56c.52-1.17,1-2.36,1.47-3.56a8.53,8.53,0,0,1,8-5.54h8.27a8.5,8.5,0,0,0,8.5-8.5V135.68A8.5,8.5,0,0,0,158.61,127.19ZM84.31,168.32A24.71,24.71,0,1,1,109,143.61,24.71,24.71,0,0,1,84.31,168.32Z"/></g></g></svg>