<svg xmlns="http://www.w3.org/2000/svg" viewBox="0 0 236.44 219.89"><defs><style>.cls-1{fill:#fead00;}.cls-2{fill:#fec03d;}.cls-3{fill:#fec346;}.cls-4{fill:#ffae00;}.cls-5{fill:#fff;}</style></defs><title>gerenciar-ideias</title><g id="Camada_2" data-name="Camada 2"><g id="ícones"><g id="Camada_2-2" data-name="Camada 2"><path class="cls-1" d="M115.34,118.64c-.18-.22-.36-.43-.55-.64-.7-.8-1.39-1.62-2.06-2.44a27.09,27.09,0,0,0-19.43-8.19H93c.25.45.51.9.77,1.35s.47.78.71,1.17c.51.82,1,1.63,1.58,2.43,0,.08.1.16.15.24a74.46,74.46,0,0,0,4.8,6.27l.35.41c.7.83,1.39,1.67,2.06,2.52a82.66,82.66,0,0,1,6.3,9q1.47,2.45,2.76,5,1.05,2.16,2,4.44a2.39,2.39,0,0,1,.16.57.59.59,0,0,1-.14.5,1.53,1.53,0,0,1-.42.33,7.63,7.63,0,0,0-3.77,7.24,7.42,7.42,0,0,0,.29,1.66,7.27,7.27,0,0,0,.47,1.23,7.38,7.38,0,0,0,1.47,2.06,27.16,27.16,0,0,0,2.83-35.19Zm121.09-49.1a57.1,57.1,0,0,0-.36-7,72.17,72.17,0,0,0-9.91-28,70.72,70.72,0,0,0-13.31-16.13A71.85,71.85,0,0,0,194,6.06,65,65,0,0,0,167.75,0h-15.3a56.35,56.35,0,0,0-17.1,2.71A71.62,71.62,0,0,0,100.77,25.4,72.19,72.19,0,0,0,87.31,49.27c-.27.83-.53,1.66-.77,2.5s-.48,1.66-.68,2.5H99.18a.44.44,0,0,1,0,0c.24-.82.48-1.64.75-2.45a1,1,0,0,0,.05-.16c.26-.78.54-1.56.83-2.34A72,72,0,0,1,113.58,28,63.51,63.51,0,0,1,152.66,6C174,2.49,193,8,209.21,22.37a64.3,64.3,0,0,1,21.46,40c2.8,19.79-2.16,37.62-15,53a88.2,88.2,0,0,0-16.62,29.16c-.29.9-.14,1.13.77,1.06s1.84-.09,2.75-.07a2.77,2.77,0,0,1,2.74,2.76,2.73,2.73,0,0,1-2.68,2.81c-1.88.05-3.76,0-5.64,0H152.26a10.85,10.85,0,0,0-2.2,2.52,10.34,10.34,0,0,0-1,2l-.18.46h53.46a7.8,7.8,0,0,0,4.1-14.54c-.7-.42-.69-.72-.42-1.39a69.07,69.07,0,0,1,11.67-19.29c11.48-13.1,17.84-28.23,18.69-45.65C236.52,73.35,236.38,71.45,236.43,69.54Z"/><path class="cls-1" d="M191.59,175.08H153.5l2.2,2.2a5.83,5.83,0,0,1,1.57,2.8h7c9,0,18,.07,27-.05a2.72,2.72,0,0,1,2.75,4,27.65,27.65,0,0,1-25.75,18c-4,0-8,.39-12-.28a32.23,32.23,0,0,1-7.33-2.12,23.72,23.72,0,0,1-2.37-1.17,22.17,22.17,0,0,1-2.19-1.35,6,6,0,0,1-4.14,1.67,5.84,5.84,0,0,1-1.73-.26,5.59,5.59,0,0,1-2.27-1.28L136,197l-5.86-5.85a11,11,0,0,0-7.53-3.2c.42.91.86,1.8,1.34,2.64a31.62,31.62,0,0,0,2.85,4.29,30.47,30.47,0,0,0,3.17,3.44c.61.57,1.24,1.11,1.9,1.63s1.08.82,1.64,1.2a29.55,29.55,0,0,0,2.92,1.78l.75.4a38,38,0,0,0,7.15,2.74c1.44.4,3,.37,4.37,1h1.22a1.26,1.26,0,0,1,1.18,0h18.27a1.24,1.24,0,0,1,1.17,0h1c.6-.47,1.35-.32,2-.46,12.42-2.47,21-9.58,25.32-21.47C200.73,179.94,197.07,175.08,191.59,175.08Z"/><path class="cls-2" d="M149.92,207a.81.81,0,0,1,1.2,0Z"/><path class="cls-3" d="M169.36,207a.81.81,0,0,1,1.2,0Z"/><path class="cls-1" d="M202.23,157.76h-54c-.17.43-.36.87-.56,1.31a10.82,10.82,0,0,0-.94,3.63h55.1a7.79,7.79,0,0,1,1.08,0,2.81,2.81,0,0,1,2.44,2.81,2.86,2.86,0,0,1-2.49,2.78,9.56,9.56,0,0,1-1.2,0H147.69a11,11,0,0,0,2.15,3.07l1.94,1.94h50.48a7.8,7.8,0,1,0,0-15.6Z"/><path class="cls-4" d="M136.25,197.19,136,197l-5.86-5.85a11,11,0,0,0-7.53-3.2,11.17,11.17,0,0,0-4.26.75l-.55.23c-1.21.54-2.33,1-3.43,1.41l-.25.11a8.4,8.4,0,0,1,4.22,1,8.19,8.19,0,0,1,2,1.5l5.85,5.85a8.44,8.44,0,0,0,7,2.43,1.64,1.64,0,0,0,.32-.05,8.11,8.11,0,0,0,2.73-.89,8.6,8.6,0,0,0,2-1.49l.27-.27A5.59,5.59,0,0,1,136.25,197.19Zm23.09-48.69a11,11,0,0,0-6.94,2.5h7.21a8.44,8.44,0,0,0,6-2.5ZM99.19,54.22a8.43,8.43,0,0,0-6-2.45H77.38a8.5,8.5,0,0,0-8.5,8.5v8.27A8.51,8.51,0,0,1,64,76.24q-.32.15-.63.27c-1,.39-2.07.81-3.08,1.26l-.48.21a8.39,8.39,0,0,1-2.6.71,10.59,10.59,0,0,0,3.07,1.8,11.13,11.13,0,0,0,8.55-.23c1.2-.53,2.31-1,3.43-1.41a11.11,11.11,0,0,0,7.15-10.31V60.27a6,6,0,0,1,6-6H99.25Zm-57.07,18,.24-.22a5.63,5.63,0,0,1,2.28-1.28l-.27-.27A8.44,8.44,0,0,0,39.31,68a8.48,8.48,0,0,0-7,2.43L21.14,81.63a8.5,8.5,0,0,0,0,12L27,99.5a8.52,8.52,0,0,1,1.7,9.56c-.52,1.17-1,2.35-1.47,3.56a8.65,8.65,0,0,1-2,3,8.45,8.45,0,0,1-6,2.5H11a8.49,8.49,0,0,0-8.5,8.5v15.85A8.49,8.49,0,0,0,11,151h8.26a8.45,8.45,0,0,1,6,2.5,8.65,8.65,0,0,1,2,3c.45,1.21,1,2.39,1.47,3.56a8.52,8.52,0,0,1-1.7,9.56l-5.86,5.85a8.5,8.5,0,0,0,0,12l11.21,11.21a8.48,8.48,0,0,0,7,2.43,8.44,8.44,0,0,0,5.06-2.43l.27-.27a5.62,5.62,0,0,1-2.28-1.28l-.24-.22L30.91,185.76a6,6,0,0,1,0-8.48l5.85-5.85A11.07,11.07,0,0,0,39,159.08c-.52-1.17-1-2.32-1.41-3.43a11.1,11.1,0,0,0-10.31-7.15H19a6,6,0,0,1-6-6V126.66a6,6,0,0,1,6-6h8.26a11.1,11.1,0,0,0,10.31-7.16c.42-1.1.89-2.25,1.41-3.41a11.08,11.08,0,0,0-2.22-12.36l-5.85-5.85a6,6,0,0,1,0-8.48Zm73.22,46.45a27.4,27.4,0,0,0-2.61-3.08,27.09,27.09,0,0,0-19.43-8.19H93a26.49,26.49,0,0,0-11.79,2.84,24.76,24.76,0,0,1,14.85,2.11l.57.29a24.75,24.75,0,0,1,13.09,18.15,25.11,25.11,0,0,1,.29,3.81,24.7,24.7,0,0,1-13.38,22A24.41,24.41,0,0,1,89.3,159a24.24,24.24,0,0,1-8.09,0,26.75,26.75,0,0,0,8.09,2.56,27.81,27.81,0,0,0,4,.29,27.2,27.2,0,0,0,22-43.15Zm44.27-.48H152.4a11,11,0,0,0,6.94,2.5h6.29A8.44,8.44,0,0,0,159.61,118.16ZM138.25,70.42a8.6,8.6,0,0,0-2-1.49,8.27,8.27,0,0,0-3-.94,8.44,8.44,0,0,0-7,2.43L120.67,76l-.28.28a8.19,8.19,0,0,1-2,1.5,8.36,8.36,0,0,1-4.21,1l.25.11c1.1.41,2.22.87,3.41,1.41l.55.23h0A11.08,11.08,0,0,0,130.15,78L136,72.19l.24-.22a5.59,5.59,0,0,1,2.27-1.28ZM85.38,214.89a6,6,0,0,1-6-6v-8.27a11.1,11.1,0,0,0-7.16-10.31c-1.09-.41-2.21-.87-3.41-1.41a11.07,11.07,0,0,0-4.56-1,10.87,10.87,0,0,0-4,.75h0a10.72,10.72,0,0,0-3.07,1.8,8.39,8.39,0,0,1,2.6.71l.48.21c1,.45,2,.87,3.08,1.26q.31.12.63.27a8.51,8.51,0,0,1,4.91,7.7v8.27a8.5,8.5,0,0,0,8.5,8.5H93.23a8.5,8.5,0,0,0,6-2.5Z"/><path class="cls-4" d="M104.69,115.52a26.64,26.64,0,0,0-7.3-5.3,24.38,24.38,0,0,0-3.62-1.49,26.48,26.48,0,0,0-4.47-1.07,26.75,26.75,0,0,0-8.09,2.56,27.08,27.08,0,0,0-7.32,5.31A22.1,22.1,0,0,1,82,112.62a21.44,21.44,0,0,1,3.32-.25,21,21,0,0,1,4,.37,22.13,22.13,0,0,1,12.06,6.51,19.88,19.88,0,0,1,2.06,2.52A22.18,22.18,0,0,1,89.3,156.42a21,21,0,0,1-4,.37,21.44,21.44,0,0,1-3.32-.25,22.1,22.1,0,0,1-8.09-2.91,27.08,27.08,0,0,0,7.32,5.31,26.75,26.75,0,0,0,8.09,2.56,27.34,27.34,0,0,0,15.39-7.86,27.05,27.05,0,0,0,7.79-17.84c0-.41,0-.81,0-1.22A27.06,27.06,0,0,0,104.69,115.52Zm0,0a26.64,26.64,0,0,0-7.3-5.3,24.38,24.38,0,0,0-3.62-1.49,26.48,26.48,0,0,0-4.47-1.07,26.75,26.75,0,0,0-8.09,2.56,27.08,27.08,0,0,0-7.32,5.31A22.1,22.1,0,0,1,82,112.62a21.44,21.44,0,0,1,3.32-.25,21,21,0,0,1,4,.37,22.13,22.13,0,0,1,12.06,6.51,19.88,19.88,0,0,1,2.06,2.52A22.18,22.18,0,0,1,89.3,156.42a21,21,0,0,1-4,.37,21.44,21.44,0,0,1-3.32-.25,22.1,22.1,0,0,1-8.09-2.91,27.08,27.08,0,0,0,7.32,5.31,26.75,26.75,0,0,0,8.09,2.56,27.34,27.34,0,0,0,15.39-7.86,27.05,27.05,0,0,0,7.79-17.84c0-.41,0-.81,0-1.22A27.06,27.06,0,0,0,104.69,115.52Zm0,0a26.64,26.64,0,0,0-7.3-5.3,24.38,24.38,0,0,0-3.62-1.49,26.48,26.48,0,0,0-4.47-1.07,26.75,26.75,0,0,0-8.09,2.56,27.08,27.08,0,0,0-7.32,5.31A22.1,22.1,0,0,1,82,112.62a21.44,21.44,0,0,1,3.32-.25,21,21,0,0,1,4,.37,22.13,22.13,0,0,1,12.06,6.51,19.88,19.88,0,0,1,2.06,2.52A22.18,22.18,0,0,1,89.3,156.42a21,21,0,0,1-4,.37,21.44,21.44,0,0,1-3.32-.25,22.1,22.1,0,0,1-8.09-2.91,27.08,27.08,0,0,0,7.32,5.31,26.75,26.75,0,0,0,8.09,2.56,27.34,27.34,0,0,0,15.39-7.86,27.05,27.05,0,0,0,7.79-17.84c0-.41,0-.81,0-1.22A27.06,27.06,0,0,0,104.69,115.52Zm0,0a26.64,26.64,0,0,0-7.3-5.3,24.38,24.38,0,0,0-3.62-1.49,26.48,26.48,0,0,0-4.47-1.07,26.75,26.75,0,0,0-8.09,2.56,27.08,27.08,0,0,0-7.32,5.31A22.1,22.1,0,0,1,82,112.62a21.44,21.44,0,0,1,3.32-.25,21,21,0,0,1,4,.37,22.13,22.13,0,0,1,12.06,6.51,19.88,19.88,0,0,1,2.06,2.52A22.18,22.18,0,0,1,89.3,156.42a21,21,0,0,1-4,.37,21.44,21.44,0,0,1-3.32-.25,22.1,22.1,0,0,1-8.09-2.91,27.08,27.08,0,0,0,7.32,5.31,26.75,26.75,0,0,0,8.09,2.56,27.34,27.34,0,0,0,15.39-7.86,27.05,27.05,0,0,0,7.79-17.84c0-.41,0-.81,0-1.22A27.06,27.06,0,0,0,104.69,115.52Zm0,0a26.64,26.64,0,0,0-7.3-5.3,24.38,24.38,0,0,0-3.62-1.49,26.48,26.48,0,0,0-4.47-1.07,26.75,26.75,0,0,0-8.09,2.56,27.08,27.08,0,0,0-7.32,5.31A22.1,22.1,0,0,1,82,112.62a21.44,21.44,0,0,1,3.32-.25,21,21,0,0,1,4,.37,22.13,22.13,0,0,1,12.06,6.51,19.88,19.88,0,0,1,2.06,2.52A22.18,22.18,0,0,1,89.3,156.42a21,21,0,0,1-4,.37,21.44,21.44,0,0,1-3.32-.25,22.1,22.1,0,0,1-8.09-2.91,27.08,27.08,0,0,0,7.32,5.31,26.75,26.75,0,0,0,8.09,2.56,27.34,27.34,0,0,0,15.39-7.86,27.05,27.05,0,0,0,7.79-17.84c0-.41,0-.81,0-1.22A27.06,27.06,0,0,0,104.69,115.52Zm0,0a26.64,26.64,0,0,0-7.3-5.3,24.38,24.38,0,0,0-3.62-1.49,26.48,26.48,0,0,0-4.47-1.07,26.75,26.75,0,0,0-8.09,2.56,27.08,27.08,0,0,0-7.32,5.31A22.1,22.1,0,0,1,82,112.62a21.44,21.44,0,0,1,3.32-.25,21,21,0,0,1,4,.37,22.13,22.13,0,0,1,12.06,6.51,19.88,19.88,0,0,1,2.06,2.52A22.18,22.18,0,0,1,89.3,156.42a21,21,0,0,1-4,.37,21.44,21.44,0,0,1-3.32-.25,22.1,22.1,0,0,1-8.09-2.91,27.08,27.08,0,0,0,7.32,5.31,26.75,26.75,0,0,0,8.09,2.56,27.34,27.34,0,0,0,15.39-7.86,27.05,27.05,0,0,0,7.79-17.84c0-.41,0-.81,0-1.22A27.06,27.06,0,0,0,104.69,115.52Zm0,0a26.64,26.64,0,0,0-7.3-5.3,24.38,24.38,0,0,0-3.62-1.49,26.48,26.48,0,0,0-4.47-1.07,26.75,26.75,0,0,0-8.09,2.56,27.08,27.08,0,0,0-7.32,5.31A22.1,22.1,0,0,1,82,112.62a21.44,21.44,0,0,1,3.32-.25,21,21,0,0,1,4,.37,22.13,22.13,0,0,1,12.06,6.51,19.88,19.88,0,0,1,2.06,2.52A22.18,22.18,0,0,1,89.3,156.42a21,21,0,0,1-4,.37,21.44,21.44,0,0,1-3.32-.25,22.1,22.1,0,0,1-8.09-2.91,27.08,27.08,0,0,0,7.32,5.31,26.75,26.75,0,0,0,8.09,2.56,27.34,27.34,0,0,0,15.39-7.86,27.05,27.05,0,0,0,7.79-17.84c0-.41,0-.81,0-1.22A27.06,27.06,0,0,0,104.69,115.52Zm0,0a26.64,26.64,0,0,0-7.3-5.3,24.38,24.38,0,0,0-3.62-1.49,26.48,26.48,0,0,0-4.47-1.07,26.75,26.75,0,0,0-8.09,2.56,27.08,27.08,0,0,0-7.32,5.31A22.1,22.1,0,0,1,82,112.62a21.44,21.44,0,0,1,3.32-.25,21,21,0,0,1,4,.37,22.13,22.13,0,0,1,12.06,6.51,19.88,19.88,0,0,1,2.06,2.52A22.18,22.18,0,0,1,89.3,156.42a21,21,0,0,1-4,.37,21.44,21.44,0,0,1-3.32-.25,22.1,22.1,0,0,1-8.09-2.91,27.08,27.08,0,0,0,7.32,5.31,26.75,26.75,0,0,0,8.09,2.56,27.34,27.34,0,0,0,15.39-7.86,27.05,27.05,0,0,0,7.79-17.84c0-.41,0-.81,0-1.22A27.06,27.06,0,0,0,104.69,115.52Zm0,0a26.64,26.64,0,0,0-7.3-5.3,24.38,24.38,0,0,0-3.62-1.49c.23.39.47.78.71,1.17.51.82,1,1.63,1.58,2.43,0,.08.1.16.15.24a74.46,74.46,0,0,0,4.8,6.27l.35.41a19.88,19.88,0,0,1,2.06,2.52,82.66,82.66,0,0,1,6.3,9q1.47,2.45,2.76,5c0-.41,0-.81,0-1.22A27.06,27.06,0,0,0,104.69,115.52Zm0,0a26.64,26.64,0,0,0-7.3-5.3,24.38,24.38,0,0,0-3.62-1.49c.23.39.47.78.71,1.17.51.82,1,1.63,1.58,2.43,0,.08.1.16.15.24a74.46,74.46,0,0,0,4.8,6.27l.35.41a19.88,19.88,0,0,1,2.06,2.52A22.18,22.18,0,0,1,89.3,156.42a21,21,0,0,1-4,.37,21.44,21.44,0,0,1-3.32-.25A24.35,24.35,0,0,0,89.3,159a24.24,24.24,0,0,0,8.09,0,26.64,26.64,0,0,0,7.3-5.3,27.05,27.05,0,0,0,7.79-17.84c0-.41,0-.81,0-1.22A27.06,27.06,0,0,0,104.69,115.52Zm35.56,83.21a5.84,5.84,0,0,1-1.73-.26,5.59,5.59,0,0,1-2.27-1.28,5.62,5.62,0,0,1-2.28,1.28,5.87,5.87,0,0,1-3.58,0l-.41-.14a5.89,5.89,0,0,1-2-1.32l-3.77-3.77-2.09-2.08a8.81,8.81,0,0,0-.72-.65,10.59,10.59,0,0,0-3.07-1.8l-.55.23c-1.21.54-2.33,1-3.43,1.41l-.25.11a11,11,0,0,0-5.11,4.24c.91-.36,1.84-.75,2.84-1.2a6.06,6.06,0,0,1,6.26.75,5.36,5.36,0,0,1,.5.45l5.85,5.85A11,11,0,0,0,136.25,203l.19-.08a10.55,10.55,0,0,0,2.85-1.73c.25-.21.5-.43.73-.66l2.08-2.08A5.74,5.74,0,0,1,140.25,198.73Zm27.36-50.23h-8.27a11,11,0,0,0-6.94,2.5h-1.06a8.21,8.21,0,0,0-1.41.12h2.33a10.85,10.85,0,0,0-2.2,2.52,6,6,0,0,1,1.28-.14h8.27a11,11,0,0,0,6.83-2.38l.16-.12a11.32,11.32,0,0,0,2.32-2.65A5.66,5.66,0,0,1,167.61,148.5Zm-62.92-33a26.64,26.64,0,0,0-7.3-5.3,24.38,24.38,0,0,0-3.62-1.49c.23.39.47.78.71,1.17.51.82,1,1.63,1.58,2.43,0,.08.1.16.15.24a74.46,74.46,0,0,0,4.8,6.27l.35.41a19.88,19.88,0,0,1,2.06,2.52A22.18,22.18,0,0,1,89.3,156.42a21,21,0,0,1-4,.37,21.44,21.44,0,0,1-3.32-.25A24.35,24.35,0,0,0,89.3,159a24.24,24.24,0,0,0,8.09,0,26.64,26.64,0,0,0,7.3-5.3,27.05,27.05,0,0,0,7.79-17.84c0-.41,0-.81,0-1.22A27.06,27.06,0,0,0,104.69,115.52Zm0,0a26.64,26.64,0,0,0-7.3-5.3,24.38,24.38,0,0,0-3.62-1.49c.23.39.47.78.71,1.17.51.82,1,1.63,1.58,2.43,0,.08.1.16.15.24a74.46,74.46,0,0,0,4.8,6.27l.35.41a19.88,19.88,0,0,1,2.06,2.52A22.18,22.18,0,0,1,89.3,156.42a21,21,0,0,1-4,.37,21.44,21.44,0,0,1-3.32-.25A24.35,24.35,0,0,0,89.3,159a24.24,24.24,0,0,0,8.09,0,26.64,26.64,0,0,0,7.3-5.3,27.05,27.05,0,0,0,7.79-17.84c0-.41,0-.81,0-1.22A27.06,27.06,0,0,0,104.69,115.52Zm0,0a26.64,26.64,0,0,0-7.3-5.3,24.38,24.38,0,0,0-3.62-1.49c.23.39.47.78.71,1.17.51.82,1,1.63,1.58,2.43,0,.08.1.16.15.24a74.46,74.46,0,0,0,4.8,6.27l.35.41a19.88,19.88,0,0,1,2.06,2.52A22.18,22.18,0,0,1,89.3,156.42a21,21,0,0,1-4,.37,21.44,21.44,0,0,1-3.32-.25A24.35,24.35,0,0,0,89.3,159a24.24,24.24,0,0,0,8.09,0,26.64,26.64,0,0,0,7.3-5.3,27.05,27.05,0,0,0,7.79-17.84c0-.41,0-.81,0-1.22A27.06,27.06,0,0,0,104.69,115.52Zm-4.5-63.75a1.57,1.57,0,0,0-.2-.16,10.86,10.86,0,0,0-6.76-2.34H77.38a11,11,0,0,0-11,11v8.27a6,6,0,0,1-3.91,5.63c-.65.24-1.3.5-2,.78s-1.15.48-1.75.75a5.24,5.24,0,0,1-.81.29,5.92,5.92,0,0,1-3.56,0L56.46,78a8.79,8.79,0,0,0,.72.65,10.59,10.59,0,0,0,3.07,1.8l.55-.23c1.2-.53,2.31-1,3.43-1.41l.25-.11a11.1,11.1,0,0,0,6.9-10.2V60.27a6,6,0,0,1,4.69-5.85,5.65,5.65,0,0,1,1.31-.15h23.85a6.16,6.16,0,0,1,1.3.14A10.72,10.72,0,0,0,100.19,51.77ZM34.12,72.19a5.84,5.84,0,0,1,2.39-1.46,5.74,5.74,0,0,1,1.85-.3,6.29,6.29,0,0,1,1.73.25A5.73,5.73,0,0,1,42.36,72a5.63,5.63,0,0,1,2.28-1.28,5.87,5.87,0,0,1,3.58,0l-2.08-2.08c-.23-.23-.48-.45-.73-.66a11,11,0,0,0-14.82.66L19.38,79.86a11,11,0,0,0,0,15.56l5.85,5.85A6.06,6.06,0,0,1,26.42,108c-.56,1.27-1.08,2.51-1.53,3.7a6,6,0,0,1-5.63,3.93H11a11,11,0,0,0-11,11V142.5a11,11,0,0,0,11,11h8.26a6,6,0,0,1,5.63,3.92c.45,1.2,1,2.44,1.53,3.71a6.06,6.06,0,0,1-1.19,6.76l-5.85,5.86a11,11,0,0,0,0,15.55l11.21,11.21a10.9,10.9,0,0,0,7.77,3.22,10.93,10.93,0,0,0,7.05-2.56c.25-.21.5-.43.73-.66l2.08-2.08a5.87,5.87,0,0,1-3.58,0,5.62,5.62,0,0,1-2.28-1.28,5.73,5.73,0,0,1-2.27,1.29,6.29,6.29,0,0,1-1.73.25,5.74,5.74,0,0,1-1.85-.3A5.84,5.84,0,0,1,34.12,197L22.91,185.76a6,6,0,0,1,0-8.48l5.85-5.85A11.07,11.07,0,0,0,31,159.08c-.52-1.17-1-2.32-1.41-3.43A11.27,11.27,0,0,0,26.2,151a11,11,0,0,0-6.94-2.5H11a5.66,5.66,0,0,1-1.31-.15A6,6,0,0,1,5,142.5V126.66a6,6,0,0,1,4.69-5.85,5.66,5.66,0,0,1,1.31-.15h8.26a11,11,0,0,0,6.94-2.5,10.78,10.78,0,0,0,2.35-2.64,10.34,10.34,0,0,0,1-2c.42-1.1.89-2.25,1.41-3.41a11.08,11.08,0,0,0-2.22-12.36l-5.85-5.85a6,6,0,0,1,0-8.48Zm70.57,43.33a26.64,26.64,0,0,0-7.3-5.3,24.38,24.38,0,0,0-3.62-1.49c.23.39.47.78.71,1.17.51.82,1,1.63,1.58,2.43,0,.08.1.16.15.24a74.46,74.46,0,0,0,4.8,6.27l.35.41a19.88,19.88,0,0,1,2.06,2.52A22.18,22.18,0,0,1,89.3,156.42a21,21,0,0,1-4,.37,21.44,21.44,0,0,1-3.32-.25A24.35,24.35,0,0,0,89.3,159a24.24,24.24,0,0,0,8.09,0,26.64,26.64,0,0,0,7.3-5.3,27.05,27.05,0,0,0,7.79-17.84c0-.41,0-.81,0-1.22A27.06,27.06,0,0,0,104.69,115.52Zm61.91,2.64a11,11,0,0,0-7-2.5h-8.27a6,6,0,0,1-1.28-.14,10.75,10.75,0,0,0,2.34,2.64,11,11,0,0,0,6.94,2.5h8.27a5.66,5.66,0,0,1,1.31.15A11.32,11.32,0,0,0,166.6,118.16ZM140,68.65c-.23-.23-.48-.45-.73-.66a11,11,0,0,0-14.82.66l-5.85,5.85a5.48,5.48,0,0,1-.51.45,5.8,5.8,0,0,1-3.47,1.29,6,6,0,0,1-2.79-.54c-1-.44-1.91-.83-2.83-1.19a11,11,0,0,0,5.12,4.23l.25.11c1.1.41,2.22.87,3.41,1.41l.55.23h0a10.46,10.46,0,0,0,3.07-1.8,8.79,8.79,0,0,0,.72-.65L124.23,76,128,72.19a5.94,5.94,0,0,1,6-1.5A5.63,5.63,0,0,1,136.25,72a5.59,5.59,0,0,1,2.27-1.28,5.84,5.84,0,0,1,1.73-.26,5.74,5.74,0,0,1,1.85.3Zm-35.33,46.87a26.64,26.64,0,0,0-7.3-5.3,24.38,24.38,0,0,0-3.62-1.49c.23.39.47.78.71,1.17.51.82,1,1.63,1.58,2.43,0,.08.1.16.15.24a74.46,74.46,0,0,0,4.8,6.27l.35.41a19.88,19.88,0,0,1,2.06,2.52A22.18,22.18,0,0,1,89.3,156.42a21,21,0,0,1-4,.37,21.44,21.44,0,0,1-3.32-.25A24.35,24.35,0,0,0,89.3,159a24.24,24.24,0,0,0,8.09,0,26.64,26.64,0,0,0,7.3-5.3,27.05,27.05,0,0,0,7.79-17.84c0-.41,0-.81,0-1.22A27.06,27.06,0,0,0,104.69,115.52Zm0,0a26.64,26.64,0,0,0-7.3-5.3,24.38,24.38,0,0,0-3.62-1.49c.23.39.47.78.71,1.17.51.82,1,1.63,1.58,2.43,0,.08.1.16.15.24a74.46,74.46,0,0,0,4.8,6.27l.35.41a19.88,19.88,0,0,1,2.06,2.52A22.18,22.18,0,0,1,89.3,156.42a21,21,0,0,1-4,.37,21.44,21.44,0,0,1-3.32-.25A24.35,24.35,0,0,0,89.3,159a24.24,24.24,0,0,0,8.09,0,26.64,26.64,0,0,0,7.3-5.3,27.05,27.05,0,0,0,7.79-17.84c0-.41,0-.81,0-1.22A27.06,27.06,0,0,0,104.69,115.52Zm0,0a26.64,26.64,0,0,0-7.3-5.3,24.38,24.38,0,0,0-3.62-1.49c.23.39.47.78.71,1.17.51.82,1,1.63,1.58,2.43,0,.08.1.16.15.24a74.46,74.46,0,0,0,4.8,6.27l.35.41a19.88,19.88,0,0,1,2.06,2.52A22.18,22.18,0,0,1,89.3,156.42a21,21,0,0,1-4,.37,21.44,21.44,0,0,1-3.32-.25A24.35,24.35,0,0,0,89.3,159a24.24,24.24,0,0,0,8.09,0,26.64,26.64,0,0,0,7.3-5.3,27.05,27.05,0,0,0,7.79-17.84c0-.41,0-.81,0-1.22A27.06,27.06,0,0,0,104.69,115.52Zm0,0a26.64,26.64,0,0,0-7.3-5.3,24.38,24.38,0,0,0-3.62-1.49c.23.39.47.78.71,1.17.51.82,1,1.63,1.58,2.43,0,.08.1.16.15.24a74.46,74.46,0,0,0,4.8,6.27l.35.41a19.88,19.88,0,0,1,2.06,2.52A22.18,22.18,0,0,1,89.3,156.42a21,21,0,0,1-4,.37,21.44,21.44,0,0,1-3.32-.25A24.35,24.35,0,0,0,89.3,159a24.24,24.24,0,0,0,8.09,0,26.64,26.64,0,0,0,7.3-5.3,27.05,27.05,0,0,0,7.79-17.84c0-.41,0-.81,0-1.22A27.06,27.06,0,0,0,104.69,115.52Zm0,0a26.64,26.64,0,0,0-7.3-5.3,24.38,24.38,0,0,0-3.62-1.49c.23.39.47.78.71,1.17.51.82,1,1.63,1.58,2.43,0,.08.1.16.15.24a74.46,74.46,0,0,0,4.8,6.27l.35.41a19.88,19.88,0,0,1,2.06,2.52A22.18,22.18,0,0,1,89.3,156.42a21,21,0,0,1-4,.37,21.44,21.44,0,0,1-3.32-.25A24.35,24.35,0,0,0,89.3,159a24.24,24.24,0,0,0,8.09,0,26.64,26.64,0,0,0,7.3-5.3,27.05,27.05,0,0,0,7.79-17.84c0-.41,0-.81,0-1.22A27.06,27.06,0,0,0,104.69,115.52Zm-3.46,99.37H77.38a5.66,5.66,0,0,1-1.31-.15,6,6,0,0,1-4.69-5.85v-8.27a11.12,11.12,0,0,0-6.91-10.2l-.25-.11c-1.09-.41-2.21-.87-3.41-1.41l-.55-.23h0a10.72,10.72,0,0,0-3.07,1.8,8.81,8.81,0,0,0-.72.65l-2.08,2.08a5.92,5.92,0,0,1,3.56,0,5,5,0,0,1,.82.29c.59.27,1.17.52,1.73.75s1.32.54,2,.78a6,6,0,0,1,3.92,5.63v8.27a11,11,0,0,0,11,11H93.23a10.87,10.87,0,0,0,7-2.5,10.72,10.72,0,0,0,2.34-2.64A6.16,6.16,0,0,1,101.23,214.89Zm3.46-99.37a26.64,26.64,0,0,0-7.3-5.3,24.38,24.38,0,0,0-3.62-1.49,26.48,26.48,0,0,0-4.47-1.07,26.75,26.75,0,0,0-8.09,2.56,27.08,27.08,0,0,0-7.32,5.31A22.1,22.1,0,0,1,82,112.62a21.44,21.44,0,0,1,3.32-.25,21,21,0,0,1,4,.37,22.13,22.13,0,0,1,12.06,6.51,19.88,19.88,0,0,1,2.06,2.52A22.18,22.18,0,0,1,89.3,156.42a21,21,0,0,1-4,.37,21.44,21.44,0,0,1-3.32-.25,22.1,22.1,0,0,1-8.09-2.91,27.08,27.08,0,0,0,7.32,5.31,26.75,26.75,0,0,0,8.09,2.56,27.34,27.34,0,0,0,15.39-7.86,27.05,27.05,0,0,0,7.79-17.84c0-.41,0-.81,0-1.22A27.06,27.06,0,0,0,104.69,115.52Zm0,0a26.64,26.64,0,0,0-7.3-5.3,24.38,24.38,0,0,0-3.62-1.49,26.48,26.48,0,0,0-4.47-1.07,26.75,26.75,0,0,0-8.09,2.56,27.08,27.08,0,0,0-7.32,5.31A22.1,22.1,0,0,1,82,112.62a21.44,21.44,0,0,1,3.32-.25,21,21,0,0,1,4,.37,22.13,22.13,0,0,1,12.06,6.51,19.88,19.88,0,0,1,2.06,2.52A22.18,22.18,0,0,1,89.3,156.42a21,21,0,0,1-4,.37,21.44,21.44,0,0,1-3.32-.25,22.1,22.1,0,0,1-8.09-2.91,27.08,27.08,0,0,0,7.32,5.31,26.75,26.75,0,0,0,8.09,2.56,27.34,27.34,0,0,0,15.39-7.86,27.05,27.05,0,0,0,7.79-17.84c0-.41,0-.81,0-1.22A27.06,27.06,0,0,0,104.69,115.52Zm0,0a26.64,26.64,0,0,0-7.3-5.3,24.38,24.38,0,0,0-3.62-1.49,26.48,26.48,0,0,0-4.47-1.07,26.75,26.75,0,0,0-8.09,2.56,27.08,27.08,0,0,0-7.32,5.31A22.1,22.1,0,0,1,82,112.62a21.44,21.44,0,0,1,3.32-.25,21,21,0,0,1,4,.37,22.13,22.13,0,0,1,12.06,6.51,19.88,19.88,0,0,1,2.06,2.52A22.18,22.18,0,0,1,89.3,156.42a21,21,0,0,1-4,.37,21.44,21.44,0,0,1-3.32-.25,22.1,22.1,0,0,1-8.09-2.91,27.08,27.08,0,0,0,7.32,5.31,26.75,26.75,0,0,0,8.09,2.56,27.34,27.34,0,0,0,15.39-7.86,27.05,27.05,0,0,0,7.79-17.84c0-.41,0-.81,0-1.22A27.06,27.06,0,0,0,104.69,115.52Zm0,0a26.64,26.64,0,0,0-7.3-5.3,24.38,24.38,0,0,0-3.62-1.49,26.48,26.48,0,0,0-4.47-1.07,26.75,26.75,0,0,0-8.09,2.56,27.08,27.08,0,0,0-7.32,5.31A22.1,22.1,0,0,1,82,112.62a21.44,21.44,0,0,1,3.32-.25,21,21,0,0,1,4,.37,22.13,22.13,0,0,1,12.06,6.51,19.88,19.88,0,0,1,2.06,2.52A22.18,22.18,0,0,1,89.3,156.42a21,21,0,0,1-4,.37,21.44,21.44,0,0,1-3.32-.25,22.1,22.1,0,0,1-8.09-2.91,27.08,27.08,0,0,0,7.32,5.31,26.75,26.75,0,0,0,8.09,2.56,27.34,27.34,0,0,0,15.39-7.86,27.05,27.05,0,0,0,7.79-17.84c0-.41,0-.81,0-1.22A27.06,27.06,0,0,0,104.69,115.52Zm0,0a26.64,26.64,0,0,0-7.3-5.3,24.38,24.38,0,0,0-3.62-1.49,26.48,26.48,0,0,0-4.47-1.07,26.75,26.75,0,0,0-8.09,2.56,27.08,27.08,0,0,0-7.32,5.31A22.1,22.1,0,0,1,82,112.62a21.44,21.44,0,0,1,3.32-.25,21,21,0,0,1,4,.37,22.13,22.13,0,0,1,12.06,6.51,19.88,19.88,0,0,1,2.06,2.52A22.18,22.18,0,0,1,89.3,156.42a21,21,0,0,1-4,.37,21.44,21.44,0,0,1-3.32-.25,22.1,22.1,0,0,1-8.09-2.91,27.08,27.08,0,0,0,7.32,5.31,26.75,26.75,0,0,0,8.09,2.56,27.34,27.34,0,0,0,15.39-7.86,27.05,27.05,0,0,0,7.79-17.84c0-.41,0-.81,0-1.22A27.06,27.06,0,0,0,104.69,115.52Zm0,0a26.64,26.64,0,0,0-7.3-5.3,24.38,24.38,0,0,0-3.62-1.49,26.48,26.48,0,0,0-4.47-1.07,26.75,26.75,0,0,0-8.09,2.56,27.08,27.08,0,0,0-7.32,5.31A22.1,22.1,0,0,1,82,112.62a21.44,21.44,0,0,1,3.32-.25,21,21,0,0,1,4,.37,22.13,22.13,0,0,1,12.06,6.51,19.88,19.88,0,0,1,2.06,2.52A22.18,22.18,0,0,1,89.3,156.42a21,21,0,0,1-4,.37,21.44,21.44,0,0,1-3.32-.25,22.1,22.1,0,0,1-8.09-2.91,27.08,27.08,0,0,0,7.32,5.31,26.75,26.75,0,0,0,8.09,2.56,27.34,27.34,0,0,0,15.39-7.86,27.05,27.05,0,0,0,7.79-17.84c0-.41,0-.81,0-1.22A27.06,27.06,0,0,0,104.69,115.52Zm0,0a26.64,26.64,0,0,0-7.3-5.3,24.38,24.38,0,0,0-3.62-1.49,26.48,26.48,0,0,0-4.47-1.07,26.75,26.75,0,0,0-8.09,2.56,27.08,27.08,0,0,0-7.32,5.31A22.1,22.1,0,0,1,82,112.62a21.44,21.44,0,0,1,3.32-.25,21,21,0,0,1,4,.37,22.13,22.13,0,0,1,12.06,6.51,19.88,19.88,0,0,1,2.06,2.52A22.18,22.18,0,0,1,89.3,156.42a21,21,0,0,1-4,.37,21.44,21.44,0,0,1-3.32-.25,22.1,22.1,0,0,1-8.09-2.91,27.08,27.08,0,0,0,7.32,5.31,26.75,26.75,0,0,0,8.09,2.56,27.34,27.34,0,0,0,15.39-7.86,27.05,27.05,0,0,0,7.79-17.84c0-.41,0-.81,0-1.22A27.06,27.06,0,0,0,104.69,115.52Z"/><path class="cls-5" d="M111,151.77a24.46,24.46,0,0,1-13.65,7.17,24.24,24.24,0,0,1-8.09,0A24.35,24.35,0,0,1,82,156.54a24.71,24.71,0,0,1,0-43.92,24.35,24.35,0,0,1,7.32-2.42,24,24,0,0,1,4-.33c.4,0,.79,0,1.18,0-.24-.39-.48-.78-.71-1.17s-.52-.9-.77-1.35a26.49,26.49,0,0,0-11.79,2.84,27.19,27.19,0,0,0,0,48.72,26.75,26.75,0,0,0,8.09,2.56,27.81,27.81,0,0,0,4,.29,27.08,27.08,0,0,0,19.21-8A7.38,7.38,0,0,1,111,151.77Zm1.69-36.21c.67.82,1.36,1.64,2.06,2.44.19.21.37.42.55.64A27.4,27.4,0,0,0,112.73,115.56ZM111,151.77a24.46,24.46,0,0,1-13.65,7.17,24.24,24.24,0,0,1-8.09,0A24.35,24.35,0,0,1,82,156.54a24.71,24.71,0,0,1,0-43.92,24.35,24.35,0,0,1,7.32-2.42,24,24,0,0,1,4-.33c.4,0,.79,0,1.18,0-.24-.39-.48-.78-.71-1.17s-.52-.9-.77-1.35a26.49,26.49,0,0,0-11.79,2.84,27.19,27.19,0,0,0,0,48.72,26.75,26.75,0,0,0,8.09,2.56,27.81,27.81,0,0,0,4,.29,27.08,27.08,0,0,0,19.21-8A7.38,7.38,0,0,1,111,151.77Zm1.69-36.21c.67.82,1.36,1.64,2.06,2.44.19.21.37.42.55.64A27.4,27.4,0,0,0,112.73,115.56ZM111,151.77a24.46,24.46,0,0,1-13.65,7.17,24.24,24.24,0,0,1-8.09,0A24.35,24.35,0,0,1,82,156.54a24.71,24.71,0,0,1,0-43.92,24.35,24.35,0,0,1,7.32-2.42,24,24,0,0,1,4-.33c.4,0,.79,0,1.18,0-.24-.39-.48-.78-.71-1.17s-.52-.9-.77-1.35a26.49,26.49,0,0,0-11.79,2.84,27.19,27.19,0,0,0,0,48.72,26.75,26.75,0,0,0,8.09,2.56,27.81,27.81,0,0,0,4,.29,27.08,27.08,0,0,0,19.21-8A7.38,7.38,0,0,1,111,151.77Zm1.69-36.21c.67.82,1.36,1.64,2.06,2.44.19.21.37.42.55.64A27.4,27.4,0,0,0,112.73,115.56ZM111,151.77a24.46,24.46,0,0,1-13.65,7.17,24.24,24.24,0,0,1-8.09,0A24.35,24.35,0,0,1,82,156.54a24.71,24.71,0,0,1,0-43.92,24.35,24.35,0,0,1,7.32-2.42,24,24,0,0,1,4-.33c.4,0,.79,0,1.18,0-.24-.39-.48-.78-.71-1.17s-.52-.9-.77-1.35a26.49,26.49,0,0,0-11.79,2.84,27.19,27.19,0,0,0,0,48.72,26.75,26.75,0,0,0,8.09,2.56,27.81,27.81,0,0,0,4,.29,27.08,27.08,0,0,0,19.21-8A7.38,7.38,0,0,1,111,151.77Zm1.69-36.21c.67.82,1.36,1.64,2.06,2.44.19.21.37.42.55.64A27.4,27.4,0,0,0,112.73,115.56ZM111,151.77a24.46,24.46,0,0,1-13.65,7.17,24.24,24.24,0,0,1-8.09,0A24.35,24.35,0,0,1,82,156.54a24.71,24.71,0,0,1,0-43.92,24.35,24.35,0,0,1,7.32-2.42,24,24,0,0,1,4-.33c.4,0,.79,0,1.18,0-.24-.39-.48-.78-.71-1.17s-.52-.9-.77-1.35a26.49,26.49,0,0,0-11.79,2.84,27.19,27.19,0,0,0,0,48.72,26.75,26.75,0,0,0,8.09,2.56,27.81,27.81,0,0,0,4,.29,27.08,27.08,0,0,0,19.21-8A7.38,7.38,0,0,1,111,151.77Zm4.3-33.13a27.4,27.4,0,0,0-2.61-3.08,27.09,27.09,0,0,0-19.43-8.19H93a26.49,26.49,0,0,0-11.79,2.84,27.19,27.19,0,0,0,0,48.72,26.75,26.75,0,0,0,8.09,2.56,27.81,27.81,0,0,0,4,.29,27.2,27.2,0,0,0,22-43.15ZM111,151.77a24.46,24.46,0,0,1-13.65,7.17,24.24,24.24,0,0,1-8.09,0A24.35,24.35,0,0,1,82,156.54a24.71,24.71,0,0,1,0-43.92,24.35,24.35,0,0,1,7.32-2.42,24,24,0,0,1,4-.33c.4,0,.79,0,1.18,0a21.39,21.39,0,0,1,2.91.32A24.69,24.69,0,0,1,111,151.77Zm4.3-33.13a27.4,27.4,0,0,0-2.61-3.08,27.09,27.09,0,0,0-19.43-8.19H93a26.49,26.49,0,0,0-11.79,2.84,27.19,27.19,0,0,0,0,48.72,26.75,26.75,0,0,0,8.09,2.56,27.81,27.81,0,0,0,4,.29,27.2,27.2,0,0,0,22-43.15ZM111,151.77a24.46,24.46,0,0,1-13.65,7.17,24.24,24.24,0,0,1-8.09,0A24.35,24.35,0,0,1,82,156.54a24.71,24.71,0,0,1,0-43.92,24.35,24.35,0,0,1,7.32-2.42,24,24,0,0,1,4-.33c.4,0,.79,0,1.18,0a21.39,21.39,0,0,1,2.91.32A24.69,24.69,0,0,1,111,151.77Zm4.3-33.13a27.4,27.4,0,0,0-2.61-3.08,27.09,27.09,0,0,0-19.43-8.19H93a26.49,26.49,0,0,0-11.79,2.84,27.19,27.19,0,0,0,0,48.72,26.75,26.75,0,0,0,8.09,2.56,27.81,27.81,0,0,0,4,.29,27.2,27.2,0,0,0,22-43.15ZM111,151.77a24.46,24.46,0,0,1-13.65,7.17,24.24,24.24,0,0,1-8.09,0A24.35,24.35,0,0,1,82,156.54a24.71,24.71,0,0,1,0-43.92,24.35,24.35,0,0,1,7.32-2.42,24,24,0,0,1,4-.33c.4,0,.79,0,1.18,0a21.39,21.39,0,0,1,2.91.32A24.69,24.69,0,0,1,111,151.77Zm4.3-33.13a27.4,27.4,0,0,0-2.61-3.08,27.09,27.09,0,0,0-19.43-8.19H93a26.49,26.49,0,0,0-11.79,2.84,27.19,27.19,0,0,0,0,48.72,26.75,26.75,0,0,0,8.09,2.56,27.81,27.81,0,0,0,4,.29,27.2,27.2,0,0,0,22-43.15ZM111,151.77a24.46,24.46,0,0,1-13.65,7.17,24.24,24.24,0,0,1-8.09,0A24.35,24.35,0,0,1,82,156.54a24.71,24.71,0,0,1,0-43.92,24.35,24.35,0,0,1,7.32-2.42,24,24,0,0,1,4-.33c.4,0,.79,0,1.18,0a21.39,21.39,0,0,1,2.91.32A24.69,24.69,0,0,1,111,151.77Zm4.3-33.13a27.4,27.4,0,0,0-2.61-3.08,27.09,27.09,0,0,0-19.43-8.19H93a26.49,26.49,0,0,0-11.79,2.84,27.19,27.19,0,0,0,0,48.72,26.75,26.75,0,0,0,8.09,2.56,27.81,27.81,0,0,0,4,.29,27.2,27.2,0,0,0,22-43.15ZM111,151.77a24.46,24.46,0,0,1-13.65,7.17,24.24,24.24,0,0,1-8.09,0A24.35,24.35,0,0,1,82,156.54a24.71,24.71,0,0,1,0-43.92,24.35,24.35,0,0,1,7.32-2.42,24,24,0,0,1,4-.33c.4,0,.79,0,1.18,0a21.39,21.39,0,0,1,2.91.32A24.69,24.69,0,0,1,111,151.77Zm4.3-33.13a27.4,27.4,0,0,0-2.61-3.08,27.09,27.09,0,0,0-19.43-8.19H93a26.49,26.49,0,0,0-11.79,2.84,27.19,27.19,0,0,0,0,48.72,26.75,26.75,0,0,0,8.09,2.56,27.81,27.81,0,0,0,4,.29,27.2,27.2,0,0,0,22-43.15ZM111,151.77a24.46,24.46,0,0,1-13.65,7.17,24.24,24.24,0,0,1-8.09,0A24.35,24.35,0,0,1,82,156.54a24.71,24.71,0,0,1,0-43.92,24.35,24.35,0,0,1,7.32-2.42,24,24,0,0,1,4-.33c.4,0,.79,0,1.18,0a21.39,21.39,0,0,1,2.91.32A24.69,24.69,0,0,1,111,151.77Zm4.3-33.13a27.4,27.4,0,0,0-2.61-3.08,27.09,27.09,0,0,0-19.43-8.19H93a26.49,26.49,0,0,0-11.79,2.84,27.19,27.19,0,0,0,0,48.72,26.75,26.75,0,0,0,8.09,2.56,27.81,27.81,0,0,0,4,.29,27.2,27.2,0,0,0,22-43.15ZM111,151.77a24.46,24.46,0,0,1-13.65,7.17,24.24,24.24,0,0,1-8.09,0A24.35,24.35,0,0,1,82,156.54a24.71,24.71,0,0,1,0-43.92,24.35,24.35,0,0,1,7.32-2.42,24,24,0,0,1,4-.33c.4,0,.79,0,1.18,0a21.39,21.39,0,0,1,2.91.32A24.69,24.69,0,0,1,111,151.77Zm4.3-33.13a27.4,27.4,0,0,0-2.61-3.08,27.09,27.09,0,0,0-19.43-8.19H93a26.49,26.49,0,0,0-11.79,2.84,27.19,27.19,0,0,0,0,48.72,26.75,26.75,0,0,0,8.09,2.56,27.81,27.81,0,0,0,4,.29,27.2,27.2,0,0,0,22-43.15ZM111,151.77a24.46,24.46,0,0,1-13.65,7.17,24.24,24.24,0,0,1-8.09,0A24.35,24.35,0,0,1,82,156.54a24.71,24.71,0,0,1,0-43.92,24.35,24.35,0,0,1,7.32-2.42,24,24,0,0,1,4-.33c.4,0,.79,0,1.18,0a21.39,21.39,0,0,1,2.91.32A24.69,24.69,0,0,1,111,151.77Zm56.57-33.61h-8.27a8.45,8.45,0,0,1-6-2.5,8.65,8.65,0,0,1-2-3c-.46-1.21-.95-2.39-1.47-3.56a8.52,8.52,0,0,1,1.7-9.56l5.85-5.85a8.5,8.5,0,0,0,0-12L146.25,70.42a8.44,8.44,0,0,0-7-2.43,8.28,8.28,0,0,0-3,.94,8.38,8.38,0,0,0-2,1.49l-.27.27-5.58,5.58A8.59,8.59,0,0,1,118.83,78l-.48-.21c-1-.45-2-.87-3.08-1.26q-.31-.12-.63-.27a8.5,8.5,0,0,1-4.91-7.7V60.27a8.51,8.51,0,0,0-8.5-8.5H85.38a8.5,8.5,0,0,0-8.5,8.5v8.27a8.53,8.53,0,0,1-5.54,8c-1.2.45-2.39.94-3.56,1.47a8.54,8.54,0,0,1-3.3.76,8.4,8.4,0,0,1-4.22-1,8.19,8.19,0,0,1-2-1.5L57.94,76l-5.57-5.57a8.44,8.44,0,0,0-7-2.43,8.44,8.44,0,0,0-5.06,2.43l-.26.26L29.14,81.63a8.5,8.5,0,0,0,0,12L35,99.5a8.52,8.52,0,0,1,1.7,9.56c-.52,1.17-1,2.35-1.47,3.56a8.53,8.53,0,0,1-8,5.54H19a8.5,8.5,0,0,0-8.5,8.5v15.85A8.5,8.5,0,0,0,19,151h8.26a8.53,8.53,0,0,1,8,5.54c.45,1.21,1,2.39,1.47,3.56a8.52,8.52,0,0,1-1.7,9.56l-5.86,5.85a8.5,8.5,0,0,0,0,12l11.21,11.21a8.51,8.51,0,0,0,12,0l5.57-5.57.28-.28a8.19,8.19,0,0,1,2-1.5,8.36,8.36,0,0,1,4.21-1,8.59,8.59,0,0,1,3.31.76c1.17.53,2.36,1,3.56,1.47a8.53,8.53,0,0,1,5.54,8v8.27a8.5,8.5,0,0,0,8.5,8.5h15.85a8.51,8.51,0,0,0,8.5-8.5v-8.27a8.5,8.5,0,0,1,4.91-7.7q.31-.15.63-.27c1-.39,2.07-.81,3.08-1.26l.48-.21a8.39,8.39,0,0,1,2.6-.71,8.25,8.25,0,0,1,2.53.09,8.39,8.39,0,0,1,4.43,2.33l5.85,5.85a8.38,8.38,0,0,0,2,1.49,8.28,8.28,0,0,0,3,.94,8.44,8.44,0,0,0,7-2.43l11.21-11.21a8.52,8.52,0,0,0,0-12l-.43-.43-1.71-1.71-3.71-3.71a8.16,8.16,0,0,1-1.06-1.3,8.63,8.63,0,0,1-.64-8.26q.51-1.16,1-2.34l.48-1.22a3.81,3.81,0,0,1,.18-.42,8.38,8.38,0,0,1,1.78-2.62,8.5,8.5,0,0,1,4.59-2.38,8.21,8.21,0,0,1,1.41-.12h8.27a8.49,8.49,0,0,0,8.5-8.49V126.66A8.49,8.49,0,0,0,167.61,118.16Zm6,24.34a6,6,0,0,1-4.69,5.85,5.66,5.66,0,0,1-1.31.15h-8.27a11,11,0,0,0-6.94,2.5h-1.06a8.21,8.21,0,0,0-1.41.12h2.33a10.85,10.85,0,0,0-2.2,2.52,10.34,10.34,0,0,0-1,2l-.18.46c-.21.54-.43,1.09-.67,1.64s-.36.87-.56,1.31a10.82,10.82,0,0,0-.94,3.63,11,11,0,0,0,3.15,8.73l1.94,1.94,1.72,1.71,2.2,2.2a5.83,5.83,0,0,1,1.57,2.8,6,6,0,0,1-1.57,5.68L144.49,197l-.1.09a6,6,0,0,1-4.14,1.67,5.84,5.84,0,0,1-1.73-.26,5.59,5.59,0,0,1-2.27-1.28L136,197l-5.86-5.85a11,11,0,0,0-7.53-3.2,11.17,11.17,0,0,0-4.26.75l-.55.23c-1.21.54-2.33,1-3.43,1.41l-.25.11a11.13,11.13,0,0,0-6.9,10.2v8.27a6,6,0,0,1-4.7,5.86,6.16,6.16,0,0,1-1.3.14H85.38a6,6,0,0,1-6-6v-8.27a11.1,11.1,0,0,0-7.16-10.31c-1.09-.41-2.21-.87-3.41-1.41a11.07,11.07,0,0,0-4.56-1,10.87,10.87,0,0,0-4,.75h0a10.72,10.72,0,0,0-3.07,1.8,8.81,8.81,0,0,0-.72.65l-2.08,2.08L50.6,197a5.94,5.94,0,0,1-6,1.5,5.62,5.62,0,0,1-2.28-1.28l-.24-.22L30.91,185.76a6,6,0,0,1,0-8.48l5.85-5.85A11.07,11.07,0,0,0,39,159.08c-.52-1.17-1-2.32-1.41-3.43a11.1,11.1,0,0,0-10.31-7.15H19a6,6,0,0,1-6-6V126.66a6,6,0,0,1,6-6h8.26a11.1,11.1,0,0,0,10.31-7.16c.42-1.1.89-2.25,1.41-3.41a11.08,11.08,0,0,0-2.22-12.36l-5.85-5.85a6,6,0,0,1,0-8.48L42.12,72.19l.24-.22a5.63,5.63,0,0,1,2.28-1.28,6,6,0,0,1,6,1.5L54.38,76,56.46,78a8.79,8.79,0,0,0,.72.65,10.59,10.59,0,0,0,3.07,1.8,11.13,11.13,0,0,0,8.55-.23c1.2-.53,2.31-1,3.43-1.41a11.11,11.11,0,0,0,7.15-10.31V60.27a6,6,0,0,1,6-6h15.85a6.16,6.16,0,0,1,1.3.14,6,6,0,0,1,4.7,5.86v8.27a11.09,11.09,0,0,0,6.91,10.2l.25.11c1.1.41,2.22.87,3.41,1.41l.55.23h0A11.08,11.08,0,0,0,130.15,78L136,72.19l.24-.22a5.59,5.59,0,0,1,2.27-1.28,5.84,5.84,0,0,1,1.73-.26,5.74,5.74,0,0,1,1.85.3,5.84,5.84,0,0,1,2.39,1.46L155.7,83.4a6,6,0,0,1,0,8.48l-5.86,5.85a11.08,11.08,0,0,0-2.21,12.35c.52,1.17,1,2.32,1.41,3.43a10.55,10.55,0,0,0,1,2,10.75,10.75,0,0,0,2.34,2.64,11,11,0,0,0,6.94,2.5h8.27a5.66,5.66,0,0,1,1.31.15,6,6,0,0,1,4.69,5.85Zm-60.88-26.94a27.09,27.09,0,0,0-19.43-8.19H93a26.49,26.49,0,0,0-11.79,2.84,27.19,27.19,0,0,0,0,48.72,26.75,26.75,0,0,0,8.09,2.56,27.81,27.81,0,0,0,4,.29,27.2,27.2,0,0,0,22-43.15A27.4,27.4,0,0,0,112.73,115.56Zm5.28,19a24.71,24.71,0,0,1-20.62,24.36,24.24,24.24,0,0,1-8.09,0A24.35,24.35,0,0,1,82,156.54a24.71,24.71,0,0,1,0-43.92,24.35,24.35,0,0,1,7.32-2.42,24,24,0,0,1,4-.33c.4,0,.79,0,1.18,0a21.39,21.39,0,0,1,2.91.32A24.7,24.7,0,0,1,118,134.58Zm-2.67-15.94a27.4,27.4,0,0,0-2.61-3.08,27.09,27.09,0,0,0-19.43-8.19H93a26.49,26.49,0,0,0-11.79,2.84,27.19,27.19,0,0,0,0,48.72,26.75,26.75,0,0,0,8.09,2.56,27.81,27.81,0,0,0,4,.29,27.2,27.2,0,0,0,22-43.15ZM111,151.77a24.46,24.46,0,0,1-13.65,7.17,24.24,24.24,0,0,1-8.09,0A24.35,24.35,0,0,1,82,156.54a24.71,24.71,0,0,1,0-43.92,24.35,24.35,0,0,1,7.32-2.42,24,24,0,0,1,4-.33c.4,0,.79,0,1.18,0a21.39,21.39,0,0,1,2.91.32A24.69,24.69,0,0,1,111,151.77Zm4.3-33.13a27.4,27.4,0,0,0-2.61-3.08,27.09,27.09,0,0,0-19.43-8.19H93a26.49,26.49,0,0,0-11.79,2.84,27.19,27.19,0,0,0,0,48.72,26.75,26.75,0,0,0,8.09,2.56,27.81,27.81,0,0,0,4,.29,27.2,27.2,0,0,0,22-43.15ZM111,151.77a24.46,24.46,0,0,1-13.65,7.17,24.24,24.24,0,0,1-8.09,0A24.35,24.35,0,0,1,82,156.54a24.71,24.71,0,0,1,0-43.92,24.35,24.35,0,0,1,7.32-2.42,24,24,0,0,1,4-.33c.4,0,.79,0,1.18,0a21.39,21.39,0,0,1,2.91.32A24.69,24.69,0,0,1,111,151.77Zm4.3-33.13a27.4,27.4,0,0,0-2.61-3.08,27.09,27.09,0,0,0-19.43-8.19H93a26.49,26.49,0,0,0-11.79,2.84,27.19,27.19,0,0,0,0,48.72,26.75,26.75,0,0,0,8.09,2.56,27.81,27.81,0,0,0,4,.29,27.2,27.2,0,0,0,22-43.15ZM111,151.77a24.46,24.46,0,0,1-13.65,7.17,24.24,24.24,0,0,1-8.09,0A24.35,24.35,0,0,1,82,156.54a24.71,24.71,0,0,1,0-43.92,24.35,24.35,0,0,1,7.32-2.42,24,24,0,0,1,4-.33c.4,0,.79,0,1.18,0a21.39,21.39,0,0,1,2.91.32A24.69,24.69,0,0,1,111,151.77Zm4.3-33.13a27.4,27.4,0,0,0-2.61-3.08,27.09,27.09,0,0,0-19.43-8.19H93a26.49,26.49,0,0,0-11.79,2.84,27.19,27.19,0,0,0,0,48.72,26.75,26.75,0,0,0,8.09,2.56,27.81,27.81,0,0,0,4,.29,27.2,27.2,0,0,0,22-43.15ZM111,151.77a24.46,24.46,0,0,1-13.65,7.17,24.24,24.24,0,0,1-8.09,0A24.35,24.35,0,0,1,82,156.54a24.71,24.71,0,0,1,0-43.92,24.35,24.35,0,0,1,7.32-2.42,24,24,0,0,1,4-.33c.4,0,.79,0,1.18,0a21.39,21.39,0,0,1,2.91.32A24.69,24.69,0,0,1,111,151.77Zm4.3-33.13a27.4,27.4,0,0,0-2.61-3.08,27.09,27.09,0,0,0-19.43-8.19H93a26.49,26.49,0,0,0-11.79,2.84,27.19,27.19,0,0,0,0,48.72,26.75,26.75,0,0,0,8.09,2.56,27.81,27.81,0,0,0,4,.29,27.2,27.2,0,0,0,22-43.15ZM111,151.77a24.46,24.46,0,0,1-13.65,7.17,24.24,24.24,0,0,1-8.09,0A24.35,24.35,0,0,1,82,156.54a24.71,24.71,0,0,1,0-43.92,24.35,24.35,0,0,1,7.32-2.42,24,24,0,0,1,4-.33c.4,0,.79,0,1.18,0a21.39,21.39,0,0,1,2.91.32A24.69,24.69,0,0,1,111,151.77Zm4.3-33.13a27.4,27.4,0,0,0-2.61-3.08,27.09,27.09,0,0,0-19.43-8.19H93a26.49,26.49,0,0,0-11.79,2.84,27.19,27.19,0,0,0,0,48.72,26.75,26.75,0,0,0,8.09,2.56,27.81,27.81,0,0,0,4,.29,27.2,27.2,0,0,0,22-43.15ZM111,151.77a24.46,24.46,0,0,1-13.65,7.17,24.24,24.24,0,0,1-8.09,0A24.35,24.35,0,0,1,82,156.54a24.71,24.71,0,0,1,0-43.92,24.35,24.35,0,0,1,7.32-2.42,24,24,0,0,1,4-.33c.4,0,.79,0,1.18,0a21.39,21.39,0,0,1,2.91.32A24.69,24.69,0,0,1,111,151.77Zm0,0a24.46,24.46,0,0,1-13.65,7.17,24.24,24.24,0,0,1-8.09,0A24.35,24.35,0,0,1,82,156.54a24.71,24.71,0,0,1,0-43.92,24.35,24.35,0,0,1,7.32-2.42,24,24,0,0,1,4-.33c.4,0,.79,0,1.18,0-.24-.39-.48-.78-.71-1.17s-.52-.9-.77-1.35a26.49,26.49,0,0,0-11.79,2.84,27.19,27.19,0,0,0,0,48.72,26.75,26.75,0,0,0,8.09,2.56,27.81,27.81,0,0,0,4,.29,27.08,27.08,0,0,0,19.21-8A7.38,7.38,0,0,1,111,151.77Zm1.69-36.21c.67.82,1.36,1.64,2.06,2.44.19.21.37.42.55.64A27.4,27.4,0,0,0,112.73,115.56ZM111,151.77a24.46,24.46,0,0,1-13.65,7.17,24.24,24.24,0,0,1-8.09,0A24.35,24.35,0,0,1,82,156.54a24.71,24.71,0,0,1,0-43.92,24.35,24.35,0,0,1,7.32-2.42,24,24,0,0,1,4-.33c.4,0,.79,0,1.18,0-.24-.39-.48-.78-.71-1.17s-.52-.9-.77-1.35a26.49,26.49,0,0,0-11.79,2.84,27.19,27.19,0,0,0,0,48.72,26.75,26.75,0,0,0,8.09,2.56,27.81,27.81,0,0,0,4,.29,27.08,27.08,0,0,0,19.21-8A7.38,7.38,0,0,1,111,151.77Zm1.69-36.21c.67.82,1.36,1.64,2.06,2.44.19.21.37.42.55.64A27.4,27.4,0,0,0,112.73,115.56ZM111,151.77a24.46,24.46,0,0,1-13.65,7.17,24.24,24.24,0,0,1-8.09,0A24.35,24.35,0,0,1,82,156.54a24.71,24.71,0,0,1,0-43.92,24.35,24.35,0,0,1,7.32-2.42,24,24,0,0,1,4-.33c.4,0,.79,0,1.18,0-.24-.39-.48-.78-.71-1.17s-.52-.9-.77-1.35a26.49,26.49,0,0,0-11.79,2.84,27.19,27.19,0,0,0,0,48.72,26.75,26.75,0,0,0,8.09,2.56,27.81,27.81,0,0,0,4,.29,27.08,27.08,0,0,0,19.21-8A7.38,7.38,0,0,1,111,151.77Zm1.69-36.21c.67.82,1.36,1.64,2.06,2.44.19.21.37.42.55.64A27.4,27.4,0,0,0,112.73,115.56ZM111,151.77a24.46,24.46,0,0,1-13.65,7.17,24.24,24.24,0,0,1-8.09,0A24.35,24.35,0,0,1,82,156.54a24.71,24.71,0,0,1,0-43.92,24.35,24.35,0,0,1,7.32-2.42,24,24,0,0,1,4-.33c.4,0,.79,0,1.18,0-.24-.39-.48-.78-.71-1.17s-.52-.9-.77-1.35a26.49,26.49,0,0,0-11.79,2.84,27.19,27.19,0,0,0,0,48.72,26.75,26.75,0,0,0,8.09,2.56,27.81,27.81,0,0,0,4,.29,27.08,27.08,0,0,0,19.21-8A7.38,7.38,0,0,1,111,151.77Zm1.69-36.21c.67.82,1.36,1.64,2.06,2.44.19.21.37.42.55.64A27.4,27.4,0,0,0,112.73,115.56ZM111,151.77a24.46,24.46,0,0,1-13.65,7.17,24.24,24.24,0,0,1-8.09,0A24.35,24.35,0,0,1,82,156.54a24.71,24.71,0,0,1,0-43.92,24.35,24.35,0,0,1,7.32-2.42,24,24,0,0,1,4-.33c.4,0,.79,0,1.18,0-.24-.39-.48-.78-.71-1.17s-.52-.9-.77-1.35a26.49,26.49,0,0,0-11.79,2.84,27.19,27.19,0,0,0,0,48.72,26.75,26.75,0,0,0,8.09,2.56,27.81,27.81,0,0,0,4,.29,27.08,27.08,0,0,0,19.21-8A7.38,7.38,0,0,1,111,151.77Zm0,0a24.46,24.46,0,0,1-13.65,7.17,24.24,24.24,0,0,1-8.09,0A24.35,24.35,0,0,1,82,156.54a24.71,24.71,0,0,1,0-43.92,24.35,24.35,0,0,1,7.32-2.42,24,24,0,0,1,4-.33c.4,0,.79,0,1.18,0-.24-.39-.48-.78-.71-1.17s-.52-.9-.77-1.35a26.49,26.49,0,0,0-11.79,2.84,27.19,27.19,0,0,0,0,48.72,26.75,26.75,0,0,0,8.09,2.56,27.81,27.81,0,0,0,4,.29,27.08,27.08,0,0,0,19.21-8A7.38,7.38,0,0,1,111,151.77Z"/><path class="cls-4" d="M115.34,118.64a27.4,27.4,0,0,0-2.61-3.08,27.09,27.09,0,0,0-19.43-8.19H93a26.49,26.49,0,0,0-11.79,2.84,27.19,27.19,0,0,0,0,48.72,26.75,26.75,0,0,0,8.09,2.56,27.81,27.81,0,0,0,4,.29,27.2,27.2,0,0,0,22-43.15Zm-5.06,30.24a22.21,22.21,0,0,1-5.59,4.76,21.94,21.94,0,0,1-8.06,2.9,21.57,21.57,0,0,1-3.33.25,21.11,21.11,0,0,1-4-.37,22.2,22.2,0,0,1,0-43.68,21.11,21.11,0,0,1,4-.37,20,20,0,0,1,2.91.2l.42.05a21.94,21.94,0,0,1,8.06,2.9,22.2,22.2,0,0,1,10.82,19.06,21.78,21.78,0,0,1-.9,6.23c0,.17-.09.33-.14.5A22,22,0,0,1,110.28,148.88Zm5.06-30.24a27.4,27.4,0,0,0-2.61-3.08,27.09,27.09,0,0,0-19.43-8.19H93a26.49,26.49,0,0,0-11.79,2.84,27.19,27.19,0,0,0,0,48.72,26.75,26.75,0,0,0,8.09,2.56,27.81,27.81,0,0,0,4,.29,27.2,27.2,0,0,0,22-43.15Zm-5.06,30.24a22.21,22.21,0,0,1-5.59,4.76,21.94,21.94,0,0,1-8.06,2.9,21.57,21.57,0,0,1-3.33.25,21.11,21.11,0,0,1-4-.37,22.2,22.2,0,0,1,0-43.68,21.11,21.11,0,0,1,4-.37,20,20,0,0,1,2.91.2l.42.05a21.94,21.94,0,0,1,8.06,2.9,22.2,22.2,0,0,1,10.82,19.06,21.78,21.78,0,0,1-.9,6.23c0,.17-.09.33-.14.5A22,22,0,0,1,110.28,148.88Zm5.06-30.24a27.4,27.4,0,0,0-2.61-3.08,27.09,27.09,0,0,0-19.43-8.19H93a26.49,26.49,0,0,0-11.79,2.84,27.19,27.19,0,0,0,0,48.72,26.75,26.75,0,0,0,8.09,2.56,27.81,27.81,0,0,0,4,.29,27.2,27.2,0,0,0,22-43.15Zm-5.06,30.24a22.21,22.21,0,0,1-5.59,4.76,21.94,21.94,0,0,1-8.06,2.9,21.57,21.57,0,0,1-3.33.25,21.11,21.11,0,0,1-4-.37,22.2,22.2,0,0,1,0-43.68,21.11,21.11,0,0,1,4-.37,20,20,0,0,1,2.91.2l.42.05a21.94,21.94,0,0,1,8.06,2.9,22.2,22.2,0,0,1,10.82,19.06,21.78,21.78,0,0,1-.9,6.23c0,.17-.09.33-.14.5A22,22,0,0,1,110.28,148.88Zm5.06-30.24a27.4,27.4,0,0,0-2.61-3.08,27.09,27.09,0,0,0-19.43-8.19H93a26.49,26.49,0,0,0-11.79,2.84,27.19,27.19,0,0,0,0,48.72,26.75,26.75,0,0,0,8.09,2.56,27.81,27.81,0,0,0,4,.29,27.2,27.2,0,0,0,22-43.15Zm-5.06,30.24a22.21,22.21,0,0,1-5.59,4.76,21.94,21.94,0,0,1-8.06,2.9,21.57,21.57,0,0,1-3.33.25,21.11,21.11,0,0,1-4-.37,22.2,22.2,0,0,1,0-43.68,21.11,21.11,0,0,1,4-.37,20,20,0,0,1,2.91.2l.42.05a21.94,21.94,0,0,1,8.06,2.9,22.2,22.2,0,0,1,10.82,19.06,21.78,21.78,0,0,1-.9,6.23c0,.17-.09.33-.14.5A22,22,0,0,1,110.28,148.88Zm5.06-30.24a27.4,27.4,0,0,0-2.61-3.08,27.09,27.09,0,0,0-19.43-8.19H93a26.49,26.49,0,0,0-11.79,2.84,27.19,27.19,0,0,0,0,48.72,26.75,26.75,0,0,0,8.09,2.56,27.81,27.81,0,0,0,4,.29,27.2,27.2,0,0,0,22-43.15Zm-5.06,30.24a22.21,22.21,0,0,1-5.59,4.76,21.94,21.94,0,0,1-8.06,2.9,21.57,21.57,0,0,1-3.33.25,21.11,21.11,0,0,1-4-.37,22.2,22.2,0,0,1,0-43.68,21.11,21.11,0,0,1,4-.37,20,20,0,0,1,2.91.2l.42.05a21.94,21.94,0,0,1,8.06,2.9,22.2,22.2,0,0,1,10.82,19.06,21.78,21.78,0,0,1-.9,6.23c0,.17-.09.33-.14.5A22,22,0,0,1,110.28,148.88Zm5.06-30.24a27.4,27.4,0,0,0-2.61-3.08,27.09,27.09,0,0,0-19.43-8.19H93a26.49,26.49,0,0,0-11.79,2.84,27.19,27.19,0,0,0,0,48.72,26.75,26.75,0,0,0,8.09,2.56,27.81,27.81,0,0,0,4,.29,27.2,27.2,0,0,0,22-43.15Zm-5.06,30.24a22.21,22.21,0,0,1-5.59,4.76,21.94,21.94,0,0,1-8.06,2.9,21.57,21.57,0,0,1-3.33.25,21.11,21.11,0,0,1-4-.37,22.2,22.2,0,0,1,0-43.68,21.11,21.11,0,0,1,4-.37,20,20,0,0,1,2.91.2l.42.05a21.94,21.94,0,0,1,8.06,2.9,22.2,22.2,0,0,1,10.82,19.06,21.78,21.78,0,0,1-.9,6.23c0,.17-.09.33-.14.5A22,22,0,0,1,110.28,148.88Zm5.06-30.24a27.4,27.4,0,0,0-2.61-3.08,27.09,27.09,0,0,0-19.43-8.19H93a26.49,26.49,0,0,0-11.79,2.84,27.19,27.19,0,0,0,0,48.72,26.75,26.75,0,0,0,8.09,2.56,27.81,27.81,0,0,0,4,.29,27.2,27.2,0,0,0,22-43.15Zm-5.06,30.24a22.21,22.21,0,0,1-5.59,4.76,21.94,21.94,0,0,1-8.06,2.9,21.57,21.57,0,0,1-3.33.25,21.11,21.11,0,0,1-4-.37,22.2,22.2,0,0,1,0-43.68,21.11,21.11,0,0,1,4-.37,20,20,0,0,1,2.91.2l.42.05a21.94,21.94,0,0,1,8.06,2.9,22.2,22.2,0,0,1,10.82,19.06,21.78,21.78,0,0,1-.9,6.23c0,.17-.09.33-.14.5A22,22,0,0,1,110.28,148.88Zm5.06-30.24a27.4,27.4,0,0,0-2.61-3.08,27.09,27.09,0,0,0-19.43-8.19H93a26.49,26.49,0,0,0-11.79,2.84,27.19,27.19,0,0,0,0,48.72,26.75,26.75,0,0,0,8.09,2.56,27.81,27.81,0,0,0,4,.29,27.2,27.2,0,0,0,22-43.15Zm-5.06,30.24a22.21,22.21,0,0,1-5.59,4.76,21.94,21.94,0,0,1-8.06,2.9,21.57,21.57,0,0,1-3.33.25,21.11,21.11,0,0,1-4-.37,22.2,22.2,0,0,1,0-43.68,21.11,21.11,0,0,1,4-.37,20,20,0,0,1,2.91.2l.42.05a21.94,21.94,0,0,1,8.06,2.9,22.2,22.2,0,0,1,10.82,19.06,21.78,21.78,0,0,1-.9,6.23c0,.17-.09.33-.14.5A22,22,0,0,1,110.28,148.88Zm5.06-30.24a27.4,27.4,0,0,0-2.61-3.08,27.09,27.09,0,0,0-19.43-8.19H93a26.49,26.49,0,0,0-11.79,2.84,27.19,27.19,0,0,0,0,48.72,26.75,26.75,0,0,0,8.09,2.56,27.81,27.81,0,0,0,4,.29,27.2,27.2,0,0,0,22-43.15Zm-5.06,30.24a22.21,22.21,0,0,1-5.59,4.76,21.94,21.94,0,0,1-8.06,2.9,21.57,21.57,0,0,1-3.33.25,21.11,21.11,0,0,1-4-.37,22.2,22.2,0,0,1,0-43.68,21.11,21.11,0,0,1,4-.37,20,20,0,0,1,2.91.2l.42.05a21.94,21.94,0,0,1,8.06,2.9,22.2,22.2,0,0,1,10.82,19.06,21.78,21.78,0,0,1-.9,6.23c0,.17-.09.33-.14.5A22,22,0,0,1,110.28,148.88Zm5.06-30.24a27.4,27.4,0,0,0-2.61-3.08,27.09,27.09,0,0,0-19.43-8.19H93a26.49,26.49,0,0,0-11.79,2.84,27.19,27.19,0,0,0,0,48.72,26.75,26.75,0,0,0,8.09,2.56,27.81,27.81,0,0,0,4,.29,27.2,27.2,0,0,0,22-43.15Zm-5.06,30.24a22.21,22.21,0,0,1-5.59,4.76,21.94,21.94,0,0,1-8.06,2.9,21.57,21.57,0,0,1-3.33.25,21.11,21.11,0,0,1-4-.37,22.2,22.2,0,0,1,0-43.68,21.11,21.11,0,0,1,4-.37,20,20,0,0,1,2.91.2l.42.05a21.94,21.94,0,0,1,8.06,2.9,22.2,22.2,0,0,1,10.82,19.06,21.78,21.78,0,0,1-.9,6.23c0,.17-.09.33-.14.5A22,22,0,0,1,110.28,148.88Zm5.06-30.24a27.4,27.4,0,0,0-2.61-3.08,27.09,27.09,0,0,0-19.43-8.19H93a26.49,26.49,0,0,0-11.79,2.84,27.19,27.19,0,0,0,0,48.72,26.75,26.75,0,0,0,8.09,2.56,27.81,27.81,0,0,0,4,.29,27.2,27.2,0,0,0,22-43.15Zm-5.06,30.24a22.21,22.21,0,0,1-5.59,4.76,21.94,21.94,0,0,1-8.06,2.9,21.57,21.57,0,0,1-3.33.25,21.11,21.11,0,0,1-4-.37,22.2,22.2,0,0,1,0-43.68,21.11,21.11,0,0,1,4-.37,20,20,0,0,1,2.91.2l.42.05a21.94,21.94,0,0,1,8.06,2.9,22.2,22.2,0,0,1,10.82,19.06,21.78,21.78,0,0,1-.9,6.23c0,.17-.09.33-.14.5A22,22,0,0,1,110.28,148.88Zm5.06-30.24a27.4,27.4,0,0,0-2.61-3.08,27.09,27.09,0,0,0-19.43-8.19H93a26.49,26.49,0,0,0-11.79,2.84,27.19,27.19,0,0,0,0,48.72,26.75,26.75,0,0,0,8.09,2.56,27.81,27.81,0,0,0,4,.29,27.2,27.2,0,0,0,22-43.15Zm-5.06,30.24a22.21,22.21,0,0,1-5.59,4.76,21.94,21.94,0,0,1-8.06,2.9,21.57,21.57,0,0,1-3.33.25,21.11,21.11,0,0,1-4-.37,22.2,22.2,0,0,1,0-43.68,21.11,21.11,0,0,1,4-.37,20,20,0,0,1,2.91.2l.42.05a21.94,21.94,0,0,1,8.06,2.9,22.2,22.2,0,0,1,10.82,19.06,21.78,21.78,0,0,1-.9,6.23c0,.17-.09.33-.14.5A22,22,0,0,1,110.28,148.88Zm5.06-30.24a27.4,27.4,0,0,0-2.61-3.08,27.09,27.09,0,0,0-19.43-8.19H93a26.49,26.49,0,0,0-11.79,2.84,27.19,27.19,0,0,0,0,48.72,26.75,26.75,0,0,0,8.09,2.56,27.81,27.81,0,0,0,4,.29,27.2,27.2,0,0,0,22-43.15Zm-5.06,30.24a22.21,22.21,0,0,1-5.59,4.76,21.94,21.94,0,0,1-8.06,2.9,21.57,21.57,0,0,1-3.33.25,21.11,21.11,0,0,1-4-.37,22.2,22.2,0,0,1,0-43.68,21.11,21.11,0,0,1,4-.37,20,20,0,0,1,2.91.2l.42.05a21.94,21.94,0,0,1,8.06,2.9,22.2,22.2,0,0,1,10.82,19.06,21.78,21.78,0,0,1-.9,6.23c0,.17-.09.33-.14.5A22,22,0,0,1,110.28,148.88Zm5.06-30.24a27.4,27.4,0,0,0-2.61-3.08,27.09,27.09,0,0,0-19.43-8.19H93a26.49,26.49,0,0,0-11.79,2.84,27.19,27.19,0,0,0,0,48.72,26.75,26.75,0,0,0,8.09,2.56,27.81,27.81,0,0,0,4,.29,27.2,27.2,0,0,0,22-43.15Zm-5.06,30.24a22.21,22.21,0,0,1-5.59,4.76,21.94,21.94,0,0,1-8.06,2.9,21.57,21.57,0,0,1-3.33.25,21.11,21.11,0,0,1-4-.37,22.2,22.2,0,0,1,0-43.68,21.11,21.11,0,0,1,4-.37,20,20,0,0,1,2.91.2l.42.05a21.94,21.94,0,0,1,8.06,2.9,22.2,22.2,0,0,1,10.82,19.06,21.78,21.78,0,0,1-.9,6.23c0,.17-.09.33-.14.5A22,22,0,0,1,110.28,148.88Zm5.06-30.24a27.4,27.4,0,0,0-2.61-3.08,27.09,27.09,0,0,0-19.43-8.19H93a26.49,26.49,0,0,0-11.79,2.84,27.19,27.19,0,0,0,0,48.72,26.75,26.75,0,0,0,8.09,2.56,27.81,27.81,0,0,0,4,.29,27.2,27.2,0,0,0,22-43.15Zm-5.06,30.24a22.21,22.21,0,0,1-5.59,4.76,21.94,21.94,0,0,1-8.06,2.9,21.57,21.57,0,0,1-3.33.25,21.11,21.11,0,0,1-4-.37,22.2,22.2,0,0,1,0-43.68,21.11,21.11,0,0,1,4-.37,20,20,0,0,1,2.91.2l.42.05a21.94,21.94,0,0,1,8.06,2.9,22.2,22.2,0,0,1,10.82,19.06,21.78,21.78,0,0,1-.9,6.23c0,.17-.09.33-.14.5A22,22,0,0,1,110.28,148.88Zm5.06-30.24a27.4,27.4,0,0,0-2.61-3.08,27.09,27.09,0,0,0-19.43-8.19H93a26.49,26.49,0,0,0-11.79,2.84,27.19,27.19,0,0,0,0,48.72,26.75,26.75,0,0,0,8.09,2.56,27.81,27.81,0,0,0,4,.29,27.2,27.2,0,0,0,22-43.15Zm-5.06,30.24a22.21,22.21,0,0,1-5.59,4.76,21.94,21.94,0,0,1-8.06,2.9,21.57,21.57,0,0,1-3.33.25,21.11,21.11,0,0,1-4-.37,22.2,22.2,0,0,1,0-43.68,21.11,21.11,0,0,1,4-.37,20,20,0,0,1,2.91.2l.42.05a21.94,21.94,0,0,1,8.06,2.9,22.2,22.2,0,0,1,10.82,19.06,21.78,21.78,0,0,1-.9,6.23c0,.17-.09.33-.14.5A22,22,0,0,1,110.28,148.88Zm5.06-30.24a27.4,27.4,0,0,0-2.61-3.08,27.09,27.09,0,0,0-19.43-8.19H93a26.49,26.49,0,0,0-11.79,2.84,27.19,27.19,0,0,0,0,48.72,26.75,26.75,0,0,0,8.09,2.56,27.81,27.81,0,0,0,4,.29,27.2,27.2,0,0,0,22-43.15Zm-5.06,30.24a22.21,22.21,0,0,1-5.59,4.76,21.94,21.94,0,0,1-8.06,2.9,21.57,21.57,0,0,1-3.33.25,21.11,21.11,0,0,1-4-.37,22.2,22.2,0,0,1,0-43.68,21.11,21.11,0,0,1,4-.37,20,20,0,0,1,2.91.2l.42.05a21.94,21.94,0,0,1,8.06,2.9,22.2,22.2,0,0,1,10.82,19.06,21.78,21.78,0,0,1-.9,6.23c0,.17-.09.33-.14.5A22,22,0,0,1,110.28,148.88Zm5.06-30.24a27.4,27.4,0,0,0-2.61-3.08,27.09,27.09,0,0,0-19.43-8.19H93a26.49,26.49,0,0,0-11.79,2.84,27.19,27.19,0,0,0,0,48.72,26.75,26.75,0,0,0,8.09,2.56,27.81,27.81,0,0,0,4,.29,27.2,27.2,0,0,0,22-43.15Zm-5.06,30.24a22.21,22.21,0,0,1-5.59,4.76,21.94,21.94,0,0,1-8.06,2.9,21.57,21.57,0,0,1-3.33.25,21.11,21.11,0,0,1-4-.37,22.2,22.2,0,0,1,0-43.68,21.11,21.11,0,0,1,4-.37,20,20,0,0,1,2.91.2l.42.05a21.94,21.94,0,0,1,8.06,2.9,22.2,22.2,0,0,1,10.82,19.06,21.78,21.78,0,0,1-.9,6.23c0,.17-.09.33-.14.5A22,22,0,0,1,110.28,148.88Zm5.06-30.24a27.4,27.4,0,0,0-2.61-3.08,27.09,27.09,0,0,0-19.43-8.19H93a26.49,26.49,0,0,0-11.79,2.84,27.19,27.19,0,0,0,0,48.72,26.75,26.75,0,0,0,8.09,2.56,27.81,27.81,0,0,0,4,.29,27.2,27.2,0,0,0,22-43.15Zm-5.06,30.24a22.21,22.21,0,0,1-5.59,4.76,21.94,21.94,0,0,1-8.06,2.9,21.57,21.57,0,0,1-3.33.25,21.11,21.11,0,0,1-4-.37,22.2,22.2,0,0,1,0-43.68,21.11,21.11,0,0,1,4-.37,20,20,0,0,1,2.91.2l.42.05a21.94,21.94,0,0,1,8.06,2.9,22.2,22.2,0,0,1,10.82,19.06,21.78,21.78,0,0,1-.9,6.23c0,.17-.09.33-.14.5A22,22,0,0,1,110.28,148.88Zm5.06-30.24a27.4,27.4,0,0,0-2.61-3.08,27.09,27.09,0,0,0-19.43-8.19H93a26.49,26.49,0,0,0-11.79,2.84,27.19,27.19,0,0,0,0,48.72,26.75,26.75,0,0,0,8.09,2.56,27.81,27.81,0,0,0,4,.29,27.2,27.2,0,0,0,22-43.15Zm-5.06,30.24a22.21,22.21,0,0,1-5.59,4.76,21.94,21.94,0,0,1-8.06,2.9,21.57,21.57,0,0,1-3.33.25,21.11,21.11,0,0,1-4-.37,22.2,22.2,0,0,1,0-43.68,21.11,21.11,0,0,1,4-.37,20,20,0,0,1,2.91.2l.42.05a21.94,21.94,0,0,1,8.06,2.9,22.2,22.2,0,0,1,10.82,19.06,21.78,21.78,0,0,1-.9,6.23c0,.17-.09.33-.14.5A22,22,0,0,1,110.28,148.88Zm5.06-30.24a27.4,27.4,0,0,0-2.61-3.08,27.09,27.09,0,0,0-19.43-8.19H93a26.49,26.49,0,0,0-11.79,2.84,27.19,27.19,0,0,0,0,48.72,26.75,26.75,0,0,0,8.09,2.56,27.81,27.81,0,0,0,4,.29,27.2,27.2,0,0,0,22-43.15Zm-5.06,30.24a22.21,22.21,0,0,1-5.59,4.76,21.94,21.94,0,0,1-8.06,2.9,21.57,21.57,0,0,1-3.33.25,21.11,21.11,0,0,1-4-.37,22.2,22.2,0,0,1,0-43.68,21.11,21.11,0,0,1,4-.37,20,20,0,0,1,2.91.2l.42.05a21.94,21.94,0,0,1,8.06,2.9,22.2,22.2,0,0,1,10.82,19.06,21.78,21.78,0,0,1-.9,6.23c0,.17-.09.33-.14.5A22,22,0,0,1,110.28,148.88Zm5.06-30.24a27.4,27.4,0,0,0-2.61-3.08,27.09,27.09,0,0,0-19.43-8.19H93a26.49,26.49,0,0,0-11.79,2.84,27.19,27.19,0,0,0,0,48.72,26.75,26.75,0,0,0,8.09,2.56,27.81,27.81,0,0,0,4,.29,27.2,27.2,0,0,0,22-43.15Zm-5.06,30.24a22.21,22.21,0,0,1-5.59,4.76,21.94,21.94,0,0,1-8.06,2.9,21.57,21.57,0,0,1-3.33.25,21.11,21.11,0,0,1-4-.37,22.2,22.2,0,0,1,0-43.68,21.11,21.11,0,0,1,4-.37,20,20,0,0,1,2.91.2l.42.05a21.94,21.94,0,0,1,8.06,2.9,22.2,22.2,0,0,1,10.82,19.06,21.78,21.78,0,0,1-.9,6.23c0,.17-.09.33-.14.5A22,22,0,0,1,110.28,148.88Zm5.06-30.24a27.4,27.4,0,0,0-2.61-3.08,27.09,27.09,0,0,0-19.43-8.19H93a26.49,26.49,0,0,0-11.79,2.84,27.19,27.19,0,0,0,0,48.72,26.75,26.75,0,0,0,8.09,2.56,27.81,27.81,0,0,0,4,.29,27.2,27.2,0,0,0,22-43.15Zm-5.06,30.24a22.21,22.21,0,0,1-5.59,4.76,21.94,21.94,0,0,1-8.06,2.9,21.57,21.57,0,0,1-3.33.25,21.11,21.11,0,0,1-4-.37,22.2,22.2,0,0,1,0-43.68,21.11,21.11,0,0,1,4-.37,20,20,0,0,1,2.91.2l.42.05a21.94,21.94,0,0,1,8.06,2.9,22.2,22.2,0,0,1,10.82,19.06,21.78,21.78,0,0,1-.9,6.23c0,.17-.09.33-.14.5A22,22,0,0,1,110.28,148.88Zm5.06-30.24a27.4,27.4,0,0,0-2.61-3.08,27.09,27.09,0,0,0-19.43-8.19H93a26.49,26.49,0,0,0-11.79,2.84,27.19,27.19,0,0,0,0,48.72,26.75,26.75,0,0,0,8.09,2.56,27.81,27.81,0,0,0,4,.29,27.2,27.2,0,0,0,22-43.15Zm-5.06,30.24a22.21,22.21,0,0,1-5.59,4.76,21.94,21.94,0,0,1-8.06,2.9,21.57,21.57,0,0,1-3.33.25,21.11,21.11,0,0,1-4-.37,22.2,22.2,0,0,1,0-43.68,21.11,21.11,0,0,1,4-.37,20,20,0,0,1,2.91.2l.42.05a21.94,21.94,0,0,1,8.06,2.9,22.2,22.2,0,0,1,10.82,19.06,21.78,21.78,0,0,1-.9,6.23c0,.17-.09.33-.14.5A22,22,0,0,1,110.28,148.88Zm5.06-30.24a27.4,27.4,0,0,0-2.61-3.08,27.09,27.09,0,0,0-19.43-8.19H93a26.49,26.49,0,0,0-11.79,2.84,27.19,27.19,0,0,0,0,48.72,26.75,26.75,0,0,0,8.09,2.56,27.81,27.81,0,0,0,4,.29,27.2,27.2,0,0,0,22-43.15Zm-5.06,30.24a22.21,22.21,0,0,1-5.59,4.76,21.94,21.94,0,0,1-8.06,2.9,21.57,21.57,0,0,1-3.33.25,21.11,21.11,0,0,1-4-.37,22.2,22.2,0,0,1,0-43.68,21.11,21.11,0,0,1,4-.37,20,20,0,0,1,2.91.2l.42.05a21.94,21.94,0,0,1,8.06,2.9,22.2,22.2,0,0,1,10.82,19.06,21.78,21.78,0,0,1-.9,6.23c0,.17-.09.33-.14.5A22,22,0,0,1,110.28,148.88Zm5.06-30.24a27.4,27.4,0,0,0-2.61-3.08,27.09,27.09,0,0,0-19.43-8.19H93a26.49,26.49,0,0,0-11.79,2.84,27.19,27.19,0,0,0,0,48.72,26.75,26.75,0,0,0,8.09,2.56,27.81,27.81,0,0,0,4,.29,27.2,27.2,0,0,0,22-43.15Zm-5.06,30.24a22.21,22.21,0,0,1-5.59,4.76,21.94,21.94,0,0,1-8.06,2.9,21.57,21.57,0,0,1-3.33.25,21.11,21.11,0,0,1-4-.37,22.2,22.2,0,0,1,0-43.68,21.11,21.11,0,0,1,4-.37,20,20,0,0,1,2.91.2l.42.05a21.94,21.94,0,0,1,8.06,2.9,22.2,22.2,0,0,1,10.82,19.06,21.78,21.78,0,0,1-.9,6.23c0,.17-.09.33-.14.5A22,22,0,0,1,110.28,148.88Zm57.33-33.22h-8.27a6,6,0,0,1-5.62-3.92c-.45-1.2-1-2.44-1.54-3.71a6.08,6.08,0,0,1,1.2-6.76l5.85-5.85a11,11,0,0,0,0-15.56L148,68.65A11,11,0,0,0,133.2,68c-.25.21-.5.43-.73.66l-2.08,2.08-3.77,3.77A6,6,0,0,1,120.67,76a5,5,0,0,1-.82-.29q-.9-.4-1.74-.75c-.67-.28-1.31-.54-2-.78a6,6,0,0,1-3.92-5.63V60.27a11,11,0,0,0-11-11H85.38a10.87,10.87,0,0,0-7,2.5,10.95,10.95,0,0,0-4,8.5v8.27a6,6,0,0,1-3.91,5.63l-.88.34c-.92.36-1.85.75-2.84,1.19a5.93,5.93,0,0,1-2.78.54A5.78,5.78,0,0,1,60.5,75,5.48,5.48,0,0,1,60,74.5l-5.85-5.85A11,11,0,0,0,39.31,68q-.37.31-.72.66L27.38,79.86a11,11,0,0,0,0,15.56l5.85,5.85A6.06,6.06,0,0,1,34.42,108c-.56,1.27-1.08,2.51-1.53,3.7a6,6,0,0,1-4.34,3.79,6.14,6.14,0,0,1-1.29.14H19a11,11,0,0,0-7,2.5,11.31,11.31,0,0,0-2.32,2.65A10.91,10.91,0,0,0,8,126.66V142.5a10.91,10.91,0,0,0,1.69,5.85A11.31,11.31,0,0,0,12,151a11,11,0,0,0,7,2.5h8.26a6.14,6.14,0,0,1,1.29.14,6,6,0,0,1,4.34,3.78c.45,1.2,1,2.44,1.53,3.71a6.06,6.06,0,0,1-1.19,6.76l-5.85,5.86a11,11,0,0,0,0,15.55l9.13,9.13,2.08,2.08q.34.35.72.66a11,11,0,0,0,14.83-.66L60,194.66a5.34,5.34,0,0,1,.5-.45A5.87,5.87,0,0,1,64,192.92a6,6,0,0,1,2.79.54c1,.45,1.92.84,2.83,1.2l.87.33a6,6,0,0,1,3.92,5.63v8.27a11,11,0,0,0,11,11h15.85a11,11,0,0,0,11-11v-8.27a6,6,0,0,1,3.91-5.63c.65-.24,1.3-.5,2-.78s1.14-.48,1.74-.75a5.24,5.24,0,0,1,.81-.29,6,6,0,0,1,3.57,0,6,6,0,0,1,2.38,1.46l.19.19,5.07,5.07.59.59c.23.23.48.45.73.66a11,11,0,0,0,3,1.81c.31.12.62.23.94.32a11.14,11.14,0,0,0,3.06.43,11,11,0,0,0,7.77-3.22l.93-.93,10.28-10.28a11,11,0,0,0,1.13-14.22,10.08,10.08,0,0,0-1.13-1.33l-.38-.38-5-5-.47-.47a6,6,0,0,1-1.65-5.19,5.63,5.63,0,0,1,.46-1.57c.51-1.15,1-2.28,1.4-3.37.05-.11.09-.22.13-.33a6.49,6.49,0,0,1,.68-1.31,6,6,0,0,1,4.94-2.62h8.27a11,11,0,0,0,11-11V126.66A11,11,0,0,0,167.61,115.66Zm-17.55,38a10.34,10.34,0,0,0-1,2l-.18.46c-.21.54-.43,1.09-.67,1.64s-.36.87-.56,1.31a10.82,10.82,0,0,0-.94,3.63,11,11,0,0,0,3.15,8.73l1.94,1.94,1.72,1.71,2.2,2.2a5.83,5.83,0,0,1,1.57,2.8,6,6,0,0,1-1.57,5.68L144.49,197l-.1.09a6,6,0,0,1-4.14,1.67,5.84,5.84,0,0,1-1.73-.26,5.59,5.59,0,0,1-2.27-1.28L136,197l-5.86-5.85a11,11,0,0,0-7.53-3.2,11.17,11.17,0,0,0-4.26.75l-.55.23c-1.21.54-2.33,1-3.43,1.41l-.25.11a11.13,11.13,0,0,0-6.9,10.2v8.27a6,6,0,0,1-4.7,5.86,6.16,6.16,0,0,1-1.3.14H85.38a6,6,0,0,1-6-6v-8.27a11.1,11.1,0,0,0-7.16-10.31c-1.09-.41-2.21-.87-3.41-1.41a11.07,11.07,0,0,0-4.56-1,10.87,10.87,0,0,0-4,.75h0a10.72,10.72,0,0,0-3.07,1.8,8.81,8.81,0,0,0-.72.65l-2.08,2.08L50.6,197a5.94,5.94,0,0,1-6,1.5,5.62,5.62,0,0,1-2.28-1.28l-.24-.22L30.91,185.76a6,6,0,0,1,0-8.48l5.85-5.85A11.07,11.07,0,0,0,39,159.08c-.52-1.17-1-2.32-1.41-3.43a11.1,11.1,0,0,0-10.31-7.15H19a6,6,0,0,1-6-6V126.66a6,6,0,0,1,6-6h8.26a11.1,11.1,0,0,0,10.31-7.16c.42-1.1.89-2.25,1.41-3.41a11.08,11.08,0,0,0-2.22-12.36l-5.85-5.85a6,6,0,0,1,0-8.48L42.12,72.19l.24-.22a5.63,5.63,0,0,1,2.28-1.28,6,6,0,0,1,6,1.5L54.38,76,56.46,78a8.79,8.79,0,0,0,.72.65,10.59,10.59,0,0,0,3.07,1.8,11.13,11.13,0,0,0,8.55-.23c1.2-.53,2.31-1,3.43-1.41a11.11,11.11,0,0,0,7.15-10.31V60.27a6,6,0,0,1,6-6h15.85a6.16,6.16,0,0,1,1.3.14,6,6,0,0,1,4.7,5.86v8.27a11.09,11.09,0,0,0,6.91,10.2l.25.11c1.1.41,2.22.87,3.41,1.41l.55.23h0A11.08,11.08,0,0,0,130.15,78L136,72.19l.24-.22a5.59,5.59,0,0,1,2.27-1.28,5.84,5.84,0,0,1,1.73-.26,5.74,5.74,0,0,1,1.85.3,5.84,5.84,0,0,1,2.39,1.46L155.7,83.4a6,6,0,0,1,0,8.48l-5.86,5.85a11.08,11.08,0,0,0-2.21,12.35c.52,1.17,1,2.32,1.41,3.43a10.55,10.55,0,0,0,1,2,10.75,10.75,0,0,0,2.34,2.64,11,11,0,0,0,6.94,2.5h8.27a5.66,5.66,0,0,1,1.31.15,6,6,0,0,1,4.69,5.85V142.5a6,6,0,0,1-4.69,5.85,5.66,5.66,0,0,1-1.31.15h-8.27a11,11,0,0,0-6.94,2.5l-.14.12A10.85,10.85,0,0,0,150.06,153.64Zm-37.33-38.08a27.09,27.09,0,0,0-19.43-8.19H93a26.49,26.49,0,0,0-11.79,2.84,27.19,27.19,0,0,0,0,48.72,26.75,26.75,0,0,0,8.09,2.56,27.81,27.81,0,0,0,4,.29,27.2,27.2,0,0,0,22-43.15A27.4,27.4,0,0,0,112.73,115.56Zm1.88,25.25c0,.17-.09.33-.14.5a22.26,22.26,0,0,1-17.84,15.23,21.57,21.57,0,0,1-3.33.25,21.11,21.11,0,0,1-4-.37,22.2,22.2,0,0,1,0-43.68,21.11,21.11,0,0,1,4-.37,20,20,0,0,1,2.91.2l.42.05a21.94,21.94,0,0,1,8.06,2.9,22.2,22.2,0,0,1,10.82,19.06A21.78,21.78,0,0,1,114.61,140.81Zm.73-22.17a27.4,27.4,0,0,0-2.61-3.08,27.09,27.09,0,0,0-19.43-8.19H93a26.49,26.49,0,0,0-11.79,2.84,27.19,27.19,0,0,0,0,48.72,26.75,26.75,0,0,0,8.09,2.56,27.81,27.81,0,0,0,4,.29,27.2,27.2,0,0,0,22-43.15Zm-5.06,30.24a22.21,22.21,0,0,1-5.59,4.76,21.94,21.94,0,0,1-8.06,2.9,21.57,21.57,0,0,1-3.33.25,21.11,21.11,0,0,1-4-.37,22.2,22.2,0,0,1,0-43.68,21.11,21.11,0,0,1,4-.37,20,20,0,0,1,2.91.2l.42.05a21.94,21.94,0,0,1,8.06,2.9,22.2,22.2,0,0,1,10.82,19.06,21.78,21.78,0,0,1-.9,6.23c0,.17-.09.33-.14.5A22,22,0,0,1,110.28,148.88Zm5.06-30.24a27.4,27.4,0,0,0-2.61-3.08,27.09,27.09,0,0,0-19.43-8.19H93a26.49,26.49,0,0,0-11.79,2.84,27.19,27.19,0,0,0,0,48.72,26.75,26.75,0,0,0,8.09,2.56,27.81,27.81,0,0,0,4,.29,27.2,27.2,0,0,0,22-43.15Zm-5.06,30.24a22.21,22.21,0,0,1-5.59,4.76,21.94,21.94,0,0,1-8.06,2.9,21.57,21.57,0,0,1-3.33.25,21.11,21.11,0,0,1-4-.37,22.2,22.2,0,0,1,0-43.68,21.11,21.11,0,0,1,4-.37,20,20,0,0,1,2.91.2l.42.05a21.94,21.94,0,0,1,8.06,2.9,22.2,22.2,0,0,1,10.82,19.06,21.78,21.78,0,0,1-.9,6.23c0,.17-.09.33-.14.5A22,22,0,0,1,110.28,148.88Zm5.06-30.24a27.4,27.4,0,0,0-2.61-3.08,27.09,27.09,0,0,0-19.43-8.19H93a26.49,26.49,0,0,0-11.79,2.84,27.19,27.19,0,0,0,0,48.72,26.75,26.75,0,0,0,8.09,2.56,27.81,27.81,0,0,0,4,.29,27.2,27.2,0,0,0,22-43.15Zm-5.06,30.24a22.21,22.21,0,0,1-5.59,4.76,21.94,21.94,0,0,1-8.06,2.9,21.57,21.57,0,0,1-3.33.25,21.11,21.11,0,0,1-4-.37,22.2,22.2,0,0,1,0-43.68,21.11,21.11,0,0,1,4-.37,20,20,0,0,1,2.91.2l.42.05a21.94,21.94,0,0,1,8.06,2.9,22.2,22.2,0,0,1,10.82,19.06,21.78,21.78,0,0,1-.9,6.23c0,.17-.09.33-.14.5A22,22,0,0,1,110.28,148.88Zm5.06-30.24a27.4,27.4,0,0,0-2.61-3.08,27.09,27.09,0,0,0-19.43-8.19H93a26.49,26.49,0,0,0-11.79,2.84,27.19,27.19,0,0,0,0,48.72,26.75,26.75,0,0,0,8.09,2.56,27.81,27.81,0,0,0,4,.29,27.2,27.2,0,0,0,22-43.15Zm-5.06,30.24a22.21,22.21,0,0,1-5.59,4.76,21.94,21.94,0,0,1-8.06,2.9,21.57,21.57,0,0,1-3.33.25,21.11,21.11,0,0,1-4-.37,22.2,22.2,0,0,1,0-43.68,21.11,21.11,0,0,1,4-.37,20,20,0,0,1,2.91.2l.42.05a21.94,21.94,0,0,1,8.06,2.9,22.2,22.2,0,0,1,10.82,19.06,21.78,21.78,0,0,1-.9,6.23c0,.17-.09.33-.14.5A22,22,0,0,1,110.28,148.88Zm5.06-30.24a27.4,27.4,0,0,0-2.61-3.08,27.09,27.09,0,0,0-19.43-8.19H93a26.49,26.49,0,0,0-11.79,2.84,27.19,27.19,0,0,0,0,48.72,26.75,26.75,0,0,0,8.09,2.56,27.81,27.81,0,0,0,4,.29,27.2,27.2,0,0,0,22-43.15Zm-5.06,30.24a22.21,22.21,0,0,1-5.59,4.76,21.94,21.94,0,0,1-8.06,2.9,21.57,21.57,0,0,1-3.33.25,21.11,21.11,0,0,1-4-.37,22.2,22.2,0,0,1,0-43.68,21.11,21.11,0,0,1,4-.37,20,20,0,0,1,2.91.2l.42.05a21.94,21.94,0,0,1,8.06,2.9,22.2,22.2,0,0,1,10.82,19.06,21.78,21.78,0,0,1-.9,6.23c0,.17-.09.33-.14.5A22,22,0,0,1,110.28,148.88Zm5.06-30.24a27.4,27.4,0,0,0-2.61-3.08,27.09,27.09,0,0,0-19.43-8.19H93a26.49,26.49,0,0,0-11.79,2.84,27.19,27.19,0,0,0,0,48.72,26.75,26.75,0,0,0,8.09,2.56,27.81,27.81,0,0,0,4,.29,27.2,27.2,0,0,0,22-43.15Zm-5.06,30.24a22.21,22.21,0,0,1-5.59,4.76,21.94,21.94,0,0,1-8.06,2.9,21.57,21.57,0,0,1-3.33.25,21.11,21.11,0,0,1-4-.37,22.2,22.2,0,0,1,0-43.68,21.11,21.11,0,0,1,4-.37,20,20,0,0,1,2.91.2l.42.05a21.94,21.94,0,0,1,8.06,2.9,22.2,22.2,0,0,1,10.82,19.06,21.78,21.78,0,0,1-.9,6.23c0,.17-.09.33-.14.5A22,22,0,0,1,110.28,148.88Zm5.06-30.24a27.4,27.4,0,0,0-2.61-3.08,27.09,27.09,0,0,0-19.43-8.19H93a26.49,26.49,0,0,0-11.79,2.84,27.19,27.19,0,0,0,0,48.72,26.75,26.75,0,0,0,8.09,2.56,27.81,27.81,0,0,0,4,.29,27.2,27.2,0,0,0,22-43.15Zm-5.06,30.24a22.21,22.21,0,0,1-5.59,4.76,21.94,21.94,0,0,1-8.06,2.9,21.57,21.57,0,0,1-3.33.25,21.11,21.11,0,0,1-4-.37,22.2,22.2,0,0,1,0-43.68,21.11,21.11,0,0,1,4-.37,20,20,0,0,1,2.91.2l.42.05a21.94,21.94,0,0,1,8.06,2.9,22.2,22.2,0,0,1,10.82,19.06,21.78,21.78,0,0,1-.9,6.23c0,.17-.09.33-.14.5A22,22,0,0,1,110.28,148.88Zm5.06-30.24a27.4,27.4,0,0,0-2.61-3.08,27.09,27.09,0,0,0-19.43-8.19H93a26.49,26.49,0,0,0-11.79,2.84,27.19,27.19,0,0,0,0,48.72,26.75,26.75,0,0,0,8.09,2.56,27.81,27.81,0,0,0,4,.29,27.2,27.2,0,0,0,22-43.15Zm-5.06,30.24a22.21,22.21,0,0,1-5.59,4.76,21.94,21.94,0,0,1-8.06,2.9,21.57,21.57,0,0,1-3.33.25,21.11,21.11,0,0,1-4-.37,22.2,22.2,0,0,1,0-43.68,21.11,21.11,0,0,1,4-.37,20,20,0,0,1,2.91.2l.42.05a21.94,21.94,0,0,1,8.06,2.9,22.2,22.2,0,0,1,10.82,19.06,21.78,21.78,0,0,1-.9,6.23c0,.17-.09.33-.14.5A22,22,0,0,1,110.28,148.88Zm5.06-30.24a27.4,27.4,0,0,0-2.61-3.08,27.09,27.09,0,0,0-19.43-8.19H93a26.49,26.49,0,0,0-11.79,2.84,27.19,27.19,0,0,0,0,48.72,26.75,26.75,0,0,0,8.09,2.56,27.81,27.81,0,0,0,4,.29,27.2,27.2,0,0,0,22-43.15Zm-5.06,30.24a22.21,22.21,0,0,1-5.59,4.76,21.94,21.94,0,0,1-8.06,2.9,21.57,21.57,0,0,1-3.33.25,21.11,21.11,0,0,1-4-.37,22.2,22.2,0,0,1,0-43.68,21.11,21.11,0,0,1,4-.37,20,20,0,0,1,2.91.2l.42.05a21.94,21.94,0,0,1,8.06,2.9,22.2,22.2,0,0,1,10.82,19.06,21.78,21.78,0,0,1-.9,6.23c0,.17-.09.33-.14.5A22,22,0,0,1,110.28,148.88Zm5.06-30.24a27.4,27.4,0,0,0-2.61-3.08,27.09,27.09,0,0,0-19.43-8.19H93a26.49,26.49,0,0,0-11.79,2.84,27.19,27.19,0,0,0,0,48.72,26.75,26.75,0,0,0,8.09,2.56,27.81,27.81,0,0,0,4,.29,27.2,27.2,0,0,0,22-43.15Zm-5.06,30.24a22.21,22.21,0,0,1-5.59,4.76,21.94,21.94,0,0,1-8.06,2.9,21.57,21.57,0,0,1-3.33.25,21.11,21.11,0,0,1-4-.37,22.2,22.2,0,0,1,0-43.68,21.11,21.11,0,0,1,4-.37,20,20,0,0,1,2.91.2l.42.05a21.94,21.94,0,0,1,8.06,2.9,22.2,22.2,0,0,1,10.82,19.06,21.78,21.78,0,0,1-.9,6.23c0,.17-.09.33-.14.5A22,22,0,0,1,110.28,148.88Zm5.06-30.24a27.4,27.4,0,0,0-2.61-3.08,27.09,27.09,0,0,0-19.43-8.19H93a26.49,26.49,0,0,0-11.79,2.84,27.19,27.19,0,0,0,0,48.72,26.75,26.75,0,0,0,8.09,2.56,27.81,27.81,0,0,0,4,.29,27.2,27.2,0,0,0,22-43.15Zm-5.06,30.24a22.21,22.21,0,0,1-5.59,4.76,21.94,21.94,0,0,1-8.06,2.9,21.57,21.57,0,0,1-3.33.25,21.11,21.11,0,0,1-4-.37,22.2,22.2,0,0,1,0-43.68,21.11,21.11,0,0,1,4-.37,20,20,0,0,1,2.91.2l.42.05a21.94,21.94,0,0,1,8.06,2.9,22.2,22.2,0,0,1,10.82,19.06,21.78,21.78,0,0,1-.9,6.23c0,.17-.09.33-.14.5A22,22,0,0,1,110.28,148.88Zm5.06-30.24a27.4,27.4,0,0,0-2.61-3.08,27.09,27.09,0,0,0-19.43-8.19H93a26.49,26.49,0,0,0-11.79,2.84,27.19,27.19,0,0,0,0,48.72,26.75,26.75,0,0,0,8.09,2.56,27.81,27.81,0,0,0,4,.29,27.2,27.2,0,0,0,22-43.15Zm-5.06,30.24a22.21,22.21,0,0,1-5.59,4.76,21.94,21.94,0,0,1-8.06,2.9,21.57,21.57,0,0,1-3.33.25,21.11,21.11,0,0,1-4-.37,22.2,22.2,0,0,1,0-43.68,21.11,21.11,0,0,1,4-.37,20,20,0,0,1,2.91.2l.42.05a21.94,21.94,0,0,1,8.06,2.9,22.2,22.2,0,0,1,10.82,19.06,21.78,21.78,0,0,1-.9,6.23c0,.17-.09.33-.14.5A22,22,0,0,1,110.28,148.88Zm5.06-30.24a27.4,27.4,0,0,0-2.61-3.08,27.09,27.09,0,0,0-19.43-8.19H93a26.49,26.49,0,0,0-11.79,2.84,27.19,27.19,0,0,0,0,48.72,26.75,26.75,0,0,0,8.09,2.56,27.81,27.81,0,0,0,4,.29,27.2,27.2,0,0,0,22-43.15Zm-5.06,30.24a22.21,22.21,0,0,1-5.59,4.76,21.94,21.94,0,0,1-8.06,2.9,21.57,21.57,0,0,1-3.33.25,21.11,21.11,0,0,1-4-.37,22.2,22.2,0,0,1,0-43.68,21.11,21.11,0,0,1,4-.37,20,20,0,0,1,2.91.2l.42.05a21.94,21.94,0,0,1,8.06,2.9,22.2,22.2,0,0,1,10.82,19.06,21.78,21.78,0,0,1-.9,6.23c0,.17-.09.33-.14.5A22,22,0,0,1,110.28,148.88Zm5.06-30.24a27.4,27.4,0,0,0-2.61-3.08,27.09,27.09,0,0,0-19.43-8.19H93a26.49,26.49,0,0,0-11.79,2.84,27.19,27.19,0,0,0,0,48.72,26.75,26.75,0,0,0,8.09,2.56,27.81,27.81,0,0,0,4,.29,27.2,27.2,0,0,0,22-43.15Zm-5.06,30.24a22.21,22.21,0,0,1-5.59,4.76,21.94,21.94,0,0,1-8.06,2.9,21.57,21.57,0,0,1-3.33.25,21.11,21.11,0,0,1-4-.37,22.2,22.2,0,0,1,0-43.68,21.11,21.11,0,0,1,4-.37,20,20,0,0,1,2.91.2l.42.05a21.94,21.94,0,0,1,8.06,2.9,22.2,22.2,0,0,1,10.82,19.06,21.78,21.78,0,0,1-.9,6.23c0,.17-.09.33-.14.5A22,22,0,0,1,110.28,148.88Zm5.06-30.24a27.4,27.4,0,0,0-2.61-3.08,27.09,27.09,0,0,0-19.43-8.19H93a26.49,26.49,0,0,0-11.79,2.84,27.19,27.19,0,0,0,0,48.72,26.75,26.75,0,0,0,8.09,2.56,27.81,27.81,0,0,0,4,.29,27.2,27.2,0,0,0,22-43.15Zm-5.06,30.24a22.21,22.21,0,0,1-5.59,4.76,21.94,21.94,0,0,1-8.06,2.9,21.57,21.57,0,0,1-3.33.25,21.11,21.11,0,0,1-4-.37,22.2,22.2,0,0,1,0-43.68,21.11,21.11,0,0,1,4-.37,20,20,0,0,1,2.91.2l.42.05a21.94,21.94,0,0,1,8.06,2.9,22.2,22.2,0,0,1,10.82,19.06,21.78,21.78,0,0,1-.9,6.23c0,.17-.09.33-.14.5A22,22,0,0,1,110.28,148.88Zm5.06-30.24a27.4,27.4,0,0,0-2.61-3.08,27.09,27.09,0,0,0-19.43-8.19H93a26.49,26.49,0,0,0-11.79,2.84,27.19,27.19,0,0,0,0,48.72,26.75,26.75,0,0,0,8.09,2.56,27.81,27.81,0,0,0,4,.29,27.2,27.2,0,0,0,22-43.15Zm-5.06,30.24a22.21,22.21,0,0,1-5.59,4.76,21.94,21.94,0,0,1-8.06,2.9,21.57,21.57,0,0,1-3.33.25,21.11,21.11,0,0,1-4-.37,22.2,22.2,0,0,1,0-43.68,21.11,21.11,0,0,1,4-.37,20,20,0,0,1,2.91.2l.42.05a21.94,21.94,0,0,1,8.06,2.9,22.2,22.2,0,0,1,10.82,19.06,21.78,21.78,0,0,1-.9,6.23c0,.17-.09.33-.14.5A22,22,0,0,1,110.28,148.88Zm5.06-30.24a27.4,27.4,0,0,0-2.61-3.08,27.09,27.09,0,0,0-19.43-8.19H93a26.49,26.49,0,0,0-11.79,2.84,27.19,27.19,0,0,0,0,48.72,26.75,26.75,0,0,0,8.09,2.56,27.81,27.81,0,0,0,4,.29,27.2,27.2,0,0,0,22-43.15Zm-5.06,30.24a22.21,22.21,0,0,1-5.59,4.76,21.94,21.94,0,0,1-8.06,2.9,21.57,21.57,0,0,1-3.33.25,21.11,21.11,0,0,1-4-.37,22.2,22.2,0,0,1,0-43.68,21.11,21.11,0,0,1,4-.37,20,20,0,0,1,2.91.2l.42.05a21.94,21.94,0,0,1,8.06,2.9,22.2,22.2,0,0,1,10.82,19.06,21.78,21.78,0,0,1-.9,6.23c0,.17-.09.33-.14.5A22,22,0,0,1,110.28,148.88Zm5.06-30.24a27.4,27.4,0,0,0-2.61-3.08,27.09,27.09,0,0,0-19.43-8.19H93a26.49,26.49,0,0,0-11.79,2.84,27.19,27.19,0,0,0,0,48.72,26.75,26.75,0,0,0,8.09,2.56,27.81,27.81,0,0,0,4,.29,27.2,27.2,0,0,0,22-43.15Zm-5.06,30.24a22.21,22.21,0,0,1-5.59,4.76,21.94,21.94,0,0,1-8.06,2.9,21.57,21.57,0,0,1-3.33.25,21.11,21.11,0,0,1-4-.37,22.2,22.2,0,0,1,0-43.68,21.11,21.11,0,0,1,4-.37,20,20,0,0,1,2.91.2l.42.05a21.94,21.94,0,0,1,8.06,2.9,22.2,22.2,0,0,1,10.82,19.06,21.78,21.78,0,0,1-.9,6.23c0,.17-.09.33-.14.5A22,22,0,0,1,110.28,148.88Zm5.06-30.24a27.4,27.4,0,0,0-2.61-3.08,27.09,27.09,0,0,0-19.43-8.19H93a26.49,26.49,0,0,0-11.79,2.84,27.19,27.19,0,0,0,0,48.72,26.75,26.75,0,0,0,8.09,2.56,27.81,27.81,0,0,0,4,.29,27.2,27.2,0,0,0,22-43.15Zm-5.06,30.24a22.21,22.21,0,0,1-5.59,4.76,21.94,21.94,0,0,1-8.06,2.9,21.57,21.57,0,0,1-3.33.25,21.11,21.11,0,0,1-4-.37,22.2,22.2,0,0,1,0-43.68,21.11,21.11,0,0,1,4-.37,20,20,0,0,1,2.91.2l.42.05a21.94,21.94,0,0,1,8.06,2.9,22.2,22.2,0,0,1,10.82,19.06,21.78,21.78,0,0,1-.9,6.23c0,.17-.09.33-.14.5A22,22,0,0,1,110.28,148.88Zm5.06-30.24a27.4,27.4,0,0,0-2.61-3.08,27.09,27.09,0,0,0-19.43-8.19H93a26.49,26.49,0,0,0-11.79,2.84,27.19,27.19,0,0,0,0,48.72,26.75,26.75,0,0,0,8.09,2.56,27.81,27.81,0,0,0,4,.29,27.2,27.2,0,0,0,22-43.15Zm-5.06,30.24a22.21,22.21,0,0,1-5.59,4.76,21.94,21.94,0,0,1-8.06,2.9,21.57,21.57,0,0,1-3.33.25,21.11,21.11,0,0,1-4-.37,22.2,22.2,0,0,1,0-43.68,21.11,21.11,0,0,1,4-.37,20,20,0,0,1,2.91.2l.42.05a21.94,21.94,0,0,1,8.06,2.9,22.2,22.2,0,0,1,10.82,19.06,21.78,21.78,0,0,1-.9,6.23c0,.17-.09.33-.14.5A22,22,0,0,1,110.28,148.88Zm5.06-30.24a27.4,27.4,0,0,0-2.61-3.08,27.09,27.09,0,0,0-19.43-8.19H93a26.49,26.49,0,0,0-11.79,2.84,27.19,27.19,0,0,0,0,48.72,26.75,26.75,0,0,0,8.09,2.56,27.81,27.81,0,0,0,4,.29,27.2,27.2,0,0,0,22-43.15Zm-5.06,30.24a22.21,22.21,0,0,1-5.59,4.76,21.94,21.94,0,0,1-8.06,2.9,21.57,21.57,0,0,1-3.33.25,21.11,21.11,0,0,1-4-.37,22.2,22.2,0,0,1,0-43.68,21.11,21.11,0,0,1,4-.37,20,20,0,0,1,2.91.2l.42.05a21.94,21.94,0,0,1,8.06,2.9,22.2,22.2,0,0,1,10.82,19.06,21.78,21.78,0,0,1-.9,6.23c0,.17-.09.33-.14.5A22,22,0,0,1,110.28,148.88Zm5.06-30.24a27.4,27.4,0,0,0-2.61-3.08,27.09,27.09,0,0,0-19.43-8.19H93a26.49,26.49,0,0,0-11.79,2.84,27.19,27.19,0,0,0,0,48.72,26.75,26.75,0,0,0,8.09,2.56,27.81,27.81,0,0,0,4,.29,27.2,27.2,0,0,0,22-43.15Zm-5.06,30.24a22.21,22.21,0,0,1-5.59,4.76,21.94,21.94,0,0,1-8.06,2.9,21.57,21.57,0,0,1-3.33.25,21.11,21.11,0,0,1-4-.37,22.2,22.2,0,0,1,0-43.68,21.11,21.11,0,0,1,4-.37,20,20,0,0,1,2.91.2l.42.05a21.94,21.94,0,0,1,8.06,2.9,22.2,22.2,0,0,1,10.82,19.06,21.78,21.78,0,0,1-.9,6.23c0,.17-.09.33-.14.5A22,22,0,0,1,110.28,148.88Zm5.06-30.24a27.4,27.4,0,0,0-2.61-3.08,27.09,27.09,0,0,0-19.43-8.19H93a26.49,26.49,0,0,0-11.79,2.84,27.19,27.19,0,0,0,0,48.72,26.75,26.75,0,0,0,8.09,2.56,27.81,27.81,0,0,0,4,.29,27.2,27.2,0,0,0,22-43.15Zm-5.06,30.24a22.21,22.21,0,0,1-5.59,4.76,21.94,21.94,0,0,1-8.06,2.9,21.57,21.57,0,0,1-3.33.25,21.11,21.11,0,0,1-4-.37,22.2,22.2,0,0,1,0-43.68,21.11,21.11,0,0,1,4-.37,20,20,0,0,1,2.91.2l.42.05a21.94,21.94,0,0,1,8.06,2.9,22.2,22.2,0,0,1,10.82,19.06,21.78,21.78,0,0,1-.9,6.23c0,.17-.09.33-.14.5A22,22,0,0,1,110.28,148.88Zm5.06-30.24a27.4,27.4,0,0,0-2.61-3.08,27.09,27.09,0,0,0-19.43-8.19H93a26.49,26.49,0,0,0-11.79,2.84,27.19,27.19,0,0,0,0,48.72,26.75,26.75,0,0,0,8.09,2.56,27.81,27.81,0,0,0,4,.29,27.2,27.2,0,0,0,22-43.15Zm-5.06,30.24a22.21,22.21,0,0,1-5.59,4.76,21.94,21.94,0,0,1-8.06,2.9,21.57,21.57,0,0,1-3.33.25,21.11,21.11,0,0,1-4-.37,22.2,22.2,0,0,1,0-43.68,21.11,21.11,0,0,1,4-.37,20,20,0,0,1,2.91.2l.42.05a21.94,21.94,0,0,1,8.06,2.9,22.2,22.2,0,0,1,10.82,19.06,21.78,21.78,0,0,1-.9,6.23c0,.17-.09.33-.14.5A22,22,0,0,1,110.28,148.88Z"/></g></g></g></svg>