<svg xmlns="http://www.w3.org/2000/svg" viewBox="0 0 142.5 205"><defs><style>.cls-1{fill:none;stroke:#ffae00;stroke-miterlimit:10;stroke-width:3px;}</style></defs><title>lamp-icon</title><g id="Camada_2" data-name="Camada 2"><g id="ícones"><path class="cls-1" d="M43.58,176.54H98.92a5,5,0,0,1,4.76,6.55A30.1,30.1,0,0,1,75.25,203.5h-8a30.1,30.1,0,0,1-28.43-20.41A5,5,0,0,1,43.58,176.54Z"/><path class="cls-1" d="M141,71.25a69.42,69.42,0,0,1-17,45.62A77.38,77.38,0,0,0,109.36,142a71.82,71.82,0,0,0-2.85,10.63H36A73.17,73.17,0,0,0,33.21,142a72.55,72.55,0,0,0-14.27-24.67A69.75,69.75,0,1,1,141,71.25Z"/><path class="cls-1" d="M114.67,147.35a5.33,5.33,0,0,1-5.32,5.32H33.15a5.32,5.32,0,0,1-5.32-5.32,5.24,5.24,0,0,1,1.56-3.75A5.31,5.31,0,0,1,33.15,142h76.21A5.31,5.31,0,0,1,114.67,147.35Z"/><path class="cls-1" d="M114.67,164.52a5.33,5.33,0,0,1-5.32,5.32H33.15a5.32,5.32,0,0,1-5.32-5.32,5.24,5.24,0,0,1,1.56-3.75,5.31,5.31,0,0,1,3.76-1.56h76.2A5.32,5.32,0,0,1,114.67,164.52Z"/></g></g></svg>